<svg width="374" height="348" viewBox="0 0 374 348" fill="none" xmlns="http://www.w3.org/2000/svg">
<g filter="url(#filter0_dd_578_870)">
<path d="M290 15H84C56.3858 15 34 37.3858 34 65V245C34 272.614 56.3858 295 84 295H290C317.614 295 340 272.614 340 245V65C340 37.3858 317.614 15 290 15Z" fill="#F4F4F4"/>
<path d="M61.52 80.1791H71.14V78.6591H64.26C66.84 76.5591 70.72 73.4991 70.72 69.8991C70.72 67.2191 68.96 65.6191 66.24 65.6191C63.64 65.6191 61.7 67.2191 61.58 70.2991H63.34C63.42 68.4791 64.38 67.1791 66.26 67.1791C68.22 67.1791 68.92 68.3791 68.92 69.9791C68.92 72.9391 65.32 75.8191 61.52 78.8791V80.1791ZM73.6639 65.9191V67.4791H81.3839L75.7439 80.3391H77.5839L83.1439 67.2991V65.9191H73.6639Z" fill="#C7C7C7"/>
<path d="M98.52 80.1791H108.14V78.6591H101.26C103.84 76.5591 107.72 73.4991 107.72 69.8991C107.72 67.2191 105.96 65.6191 103.24 65.6191C100.64 65.6191 98.7 67.2191 98.58 70.2991H100.34C100.42 68.4791 101.38 67.1791 103.26 67.1791C105.22 67.1791 105.92 68.3791 105.92 69.9791C105.92 72.9391 102.32 75.8191 98.52 78.8791V80.1791ZM113.884 72.8191C112.264 73.2991 111.204 74.6191 111.204 76.4391C111.204 79.0591 113.264 80.7391 116.304 80.7391C119.364 80.7391 121.444 79.0591 121.444 76.4391C121.444 74.6391 120.384 73.3191 118.744 72.8191C120.164 72.2591 121.064 71.0591 121.064 69.4991C121.064 67.3991 119.444 65.6591 116.304 65.6591C113.164 65.6591 111.564 67.3791 111.564 69.4991C111.564 71.1191 112.404 72.2391 113.884 72.8191ZM116.304 72.2191C114.544 72.2191 113.324 71.2391 113.324 69.7391C113.324 68.0391 114.524 67.1791 116.304 67.1791C118.124 67.1791 119.304 68.0591 119.304 69.7191C119.304 71.2191 118.084 72.2191 116.304 72.2191ZM116.304 73.6191C118.204 73.6191 119.644 74.5191 119.644 76.3791C119.644 78.0591 118.364 79.2191 116.304 79.2191C114.244 79.2191 112.944 78.0791 112.944 76.3791C112.944 74.4591 114.444 73.6191 116.304 73.6191Z" fill="#C7C7C7"/>
<path d="M136.52 80.1796H146.14V78.6596H139.26C141.84 76.5596 145.72 73.4996 145.72 69.8996C145.72 67.2196 143.96 65.6196 141.24 65.6196C138.64 65.6196 136.7 67.2196 136.58 70.2996H138.34C138.42 68.4796 139.38 67.1796 141.26 67.1796C143.22 67.1796 143.92 68.3796 143.92 69.9796C143.92 72.9396 140.32 75.8196 136.52 78.8796V80.1796ZM149.904 76.4596C150.104 78.5796 151.504 80.3596 154.384 80.3596C158.184 80.3596 159.284 77.6596 159.284 72.8396C159.284 68.3596 158.144 65.5996 154.224 65.5996C151.104 65.5996 149.464 67.5996 149.464 70.3596C149.464 73.4196 151.444 75.0796 154.104 75.0796C155.664 75.0796 157.104 74.3796 157.684 73.1596C157.744 77.3996 156.604 78.8396 154.484 78.8396C152.804 78.8396 151.844 77.9596 151.584 76.4596H149.904ZM154.404 73.5396C152.244 73.5396 151.204 72.1796 151.204 70.3196C151.204 68.3996 152.384 67.1196 154.264 67.1196C156.344 67.1196 157.464 68.4996 157.464 70.4596C157.464 72.3996 156.144 73.5396 154.404 73.5396Z" fill="#C7C7C7"/>
<path d="M174.7 69.5196H176.48C176.66 68.1196 177.68 67.1596 179.38 67.1596C181.12 67.1596 182.04 68.1196 182.04 69.4996C182.04 71.1796 180.74 71.9196 178.32 71.9396H177.84V73.4596H178.3C180.9 73.4596 182.32 74.2396 182.32 76.2796C182.32 77.7596 181.4 78.8996 179.46 78.8996C177.54 78.8996 176.42 77.7196 176.24 76.1796H174.48C174.7 78.9796 176.74 80.4396 179.48 80.4396C182.5 80.4396 184.06 78.6796 184.06 76.4396C184.06 74.3596 182.92 73.1196 181.24 72.7196V72.6196C182.76 72.2796 183.8 70.9796 183.8 69.3196C183.8 67.2396 182.26 65.5996 179.44 65.5996C176.76 65.5996 174.88 67.0396 174.7 69.5196ZM187.517 72.9596C187.517 77.1596 188.557 80.3396 192.557 80.3396C196.537 80.3396 197.577 77.1596 197.577 72.9596C197.577 68.8196 196.537 65.6596 192.557 65.6596C188.557 65.6596 187.517 68.8196 187.517 72.9596ZM195.777 72.9596C195.777 76.0796 195.397 78.6796 192.557 78.6796C189.697 78.6796 189.317 76.0796 189.317 72.9596C189.317 69.9596 189.697 67.3196 192.557 67.3196C195.397 67.3196 195.777 69.9596 195.777 72.9596Z" fill="#C7C7C7"/>
<path d="M215.7 69.5196H217.48C217.66 68.1196 218.68 67.1596 220.38 67.1596C222.12 67.1596 223.04 68.1196 223.04 69.4996C223.04 71.1796 221.74 71.9196 219.32 71.9396H218.84V73.4596H219.3C221.9 73.4596 223.32 74.2396 223.32 76.2796C223.32 77.7596 222.4 78.8996 220.46 78.8996C218.54 78.8996 217.42 77.7196 217.24 76.1796H215.48C215.7 78.9796 217.74 80.4396 220.48 80.4396C223.5 80.4396 225.06 78.6796 225.06 76.4396C225.06 74.3596 223.92 73.1196 222.24 72.7196V72.6196C223.76 72.2796 224.8 70.9796 224.8 69.3196C224.8 67.2396 223.26 65.5996 220.44 65.5996C217.76 65.5996 215.88 67.0396 215.7 69.5196ZM229.957 80.3396H231.797V65.8796H228.037V67.5396H229.957V80.3396Z" fill="#C7C7C7"/>
<path d="M261.68 80.3399H263.52V65.8799H259.76V67.5399H261.68V80.3399Z" fill="#222222"/>
<path d="M295.52 80.1791H305.14V78.6591H298.26C300.84 76.5591 304.72 73.4991 304.72 69.8991C304.72 67.2191 302.96 65.6191 300.24 65.6191C297.64 65.6191 295.7 67.2191 295.58 70.2991H297.34C297.42 68.4791 298.38 67.1791 300.26 67.1791C302.22 67.1791 302.92 68.3791 302.92 69.9791C302.92 72.9391 299.32 75.8191 295.52 78.8791V80.1791Z" fill="#222222"/>
<path d="M67.7 124.52H69.48C69.66 123.12 70.68 122.16 72.38 122.16C74.12 122.16 75.04 123.12 75.04 124.5C75.04 126.18 73.74 126.92 71.32 126.94H70.84V128.46H71.3C73.9 128.46 75.32 129.24 75.32 131.28C75.32 132.76 74.4 133.9 72.46 133.9C70.54 133.9 69.42 132.72 69.24 131.18H67.48C67.7 133.98 69.74 135.44 72.48 135.44C75.5 135.44 77.06 133.68 77.06 131.44C77.06 129.36 75.92 128.12 74.24 127.72V127.62C75.76 127.28 76.8 125.98 76.8 124.32C76.8 122.24 75.26 120.6 72.44 120.6C69.76 120.6 67.88 122.04 67.7 124.52Z" fill="#222222"/>
<path d="M112.2 135.34H114V132.12H116V130.54H114V121.02H111.82L104.8 130.74V132.12H112.2V135.34ZM106.9 130.54L112.28 122.92V130.54H106.9Z" fill="#222222"/>
<path d="M143.76 120.86V129.02H145.48C145.96 127.88 147.02 127.12 148.48 127.12C150.58 127.12 151.64 128.32 151.64 130.38C151.64 132.36 150.66 133.84 148.46 133.84C146.76 133.84 145.58 132.94 145.24 131.42H143.46C143.82 133.76 145.56 135.38 148.44 135.38C151.82 135.38 153.38 133.14 153.38 130.34C153.38 128.1 152.26 125.56 148.74 125.56C147.32 125.56 146.04 126.2 145.44 127.02V122.46H152.46V120.86H143.76Z" fill="#222222"/>
<path d="M190.98 124.32C190.74 122.3 189.34 120.58 186.58 120.58C182.92 120.58 181.46 123.38 181.46 127.92C181.46 132.3 182.48 135.38 186.76 135.38C189.92 135.38 191.48 133.22 191.48 130.58C191.48 127.54 189.66 125.76 186.96 125.76C185.24 125.76 183.66 126.56 183.04 127.98C183.02 123.68 184.26 122.1 186.56 122.1C188.2 122.1 189.02 122.92 189.3 124.32H190.98ZM186.58 127.3C188.66 127.3 189.72 128.6 189.72 130.64C189.72 132.6 188.54 133.86 186.66 133.86C184.38 133.86 183.26 132.36 183.26 130.44C183.26 128.28 184.92 127.3 186.58 127.3Z" fill="#222222"/>
<path d="M219.66 120.92V122.48H227.38L221.74 135.34H223.58L229.14 122.3V120.92H219.66Z" fill="#222222"/>
<path d="M281.5 128.34C281.5 117.847 272.993 109.34 262.5 109.34C252.007 109.34 243.5 117.847 243.5 128.34C243.5 138.833 252.007 147.34 262.5 147.34C272.993 147.34 281.5 138.833 281.5 128.34Z" fill="#FFA600"/>
<path d="M259.88 127.82C259.133 127.526 258.56 127.1 258.16 126.54C257.76 125.98 257.56 125.3 257.56 124.5C257.56 123.78 257.74 123.133 258.1 122.56C258.46 121.973 258.993 121.513 259.7 121.18C260.42 120.833 261.287 120.66 262.3 120.66C263.313 120.66 264.173 120.833 264.88 121.18C265.6 121.513 266.14 121.973 266.5 122.56C266.873 123.133 267.06 123.78 267.06 124.5C267.06 125.273 266.853 125.953 266.44 126.54C266.027 127.113 265.46 127.54 264.74 127.82C265.567 128.073 266.22 128.52 266.7 129.16C267.193 129.786 267.44 130.546 267.44 131.44C267.44 132.306 267.227 133.066 266.8 133.72C266.373 134.36 265.767 134.86 264.98 135.22C264.207 135.566 263.313 135.74 262.3 135.74C261.287 135.74 260.393 135.566 259.62 135.22C258.86 134.86 258.267 134.36 257.84 133.72C257.413 133.066 257.2 132.306 257.2 131.44C257.2 130.546 257.44 129.78 257.92 129.14C258.4 128.5 259.053 128.06 259.88 127.82ZM265.3 124.72C265.3 123.906 265.033 123.28 264.5 122.84C263.967 122.4 263.233 122.18 262.3 122.18C261.38 122.18 260.653 122.4 260.12 122.84C259.587 123.28 259.32 123.913 259.32 124.74C259.32 125.486 259.593 126.086 260.14 126.54C260.7 126.993 261.42 127.22 262.3 127.22C263.193 127.22 263.913 126.993 264.46 126.54C265.02 126.073 265.3 125.466 265.3 124.72ZM262.3 128.62C261.313 128.62 260.507 128.853 259.88 129.32C259.253 129.773 258.94 130.46 258.94 131.38C258.94 132.233 259.24 132.92 259.84 133.44C260.453 133.96 261.273 134.22 262.3 134.22C263.327 134.22 264.14 133.96 264.74 133.44C265.34 132.92 265.64 132.233 265.64 131.38C265.64 130.486 265.333 129.806 264.72 129.34C264.107 128.86 263.3 128.62 262.3 128.62Z" fill="#222222"/>
<path d="M295.9 131.46C296.1 133.58 297.5 135.36 300.38 135.36C304.18 135.36 305.28 132.66 305.28 127.84C305.28 123.36 304.14 120.6 300.22 120.6C297.1 120.6 295.46 122.6 295.46 125.36C295.46 128.42 297.44 130.08 300.1 130.08C301.66 130.08 303.1 129.38 303.68 128.16C303.74 132.4 302.6 133.84 300.48 133.84C298.8 133.84 297.84 132.96 297.58 131.46H295.9ZM300.4 128.54C298.24 128.54 297.2 127.18 297.2 125.32C297.2 123.4 298.38 122.12 300.26 122.12C302.34 122.12 303.46 123.5 303.46 125.46C303.46 127.4 302.14 128.54 300.4 128.54Z" fill="#222222"/>
<path d="M65.18 190.34H67.02V175.88H63.26V177.54H65.18V190.34ZM71.1463 182.96C71.1463 187.16 72.1863 190.34 76.1863 190.34C80.1663 190.34 81.2062 187.16 81.2062 182.96C81.2062 178.82 80.1663 175.66 76.1863 175.66C72.1863 175.66 71.1463 178.82 71.1463 182.96ZM79.4063 182.96C79.4063 186.08 79.0263 188.68 76.1863 188.68C73.3263 188.68 72.9463 186.08 72.9463 182.96C72.9463 179.96 73.3263 177.32 76.1863 177.32C79.0263 177.32 79.4063 179.96 79.4063 182.96Z" fill="#222222"/>
<path d="M106.18 190.34H108.02V175.88H104.26V177.54H106.18V190.34ZM113.586 190.34H115.426V175.88H111.666V177.54H113.586V190.34Z" fill="#222222"/>
<path d="M141.68 190.34H143.52V175.88H139.76V177.54H141.68V190.34ZM147.426 190.18H157.046V188.66H150.166C152.746 186.56 156.626 183.5 156.626 179.9C156.626 177.22 154.866 175.62 152.146 175.62C149.546 175.62 147.606 177.22 147.486 180.3H149.246C149.326 178.48 150.286 177.18 152.166 177.18C154.126 177.18 154.826 178.38 154.826 179.98C154.826 182.94 151.226 185.82 147.426 188.88V190.18Z" fill="#222222"/>
<path d="M179.18 190.34H181.02V175.88H177.26V177.54H179.18V190.34ZM185.106 179.52H186.886C187.066 178.12 188.086 177.16 189.786 177.16C191.526 177.16 192.446 178.12 192.446 179.5C192.446 181.18 191.146 181.92 188.726 181.94H188.246V183.46H188.706C191.306 183.46 192.726 184.24 192.726 186.28C192.726 187.76 191.806 188.9 189.866 188.9C187.946 188.9 186.826 187.72 186.646 186.18H184.886C185.106 188.98 187.146 190.44 189.886 190.44C192.906 190.44 194.466 188.68 194.466 186.44C194.466 184.36 193.326 183.12 191.646 182.72V182.62C193.166 182.28 194.206 180.98 194.206 179.32C194.206 177.24 192.666 175.6 189.846 175.6C187.166 175.6 185.286 177.04 185.106 179.52Z" fill="#222222"/>
<path d="M217.18 190.34H219.02V175.88H215.26V177.54H217.18V190.34ZM230.106 190.34H231.906V187.12H233.906V185.54H231.906V176.02H229.726L222.706 185.74V187.12H230.106V190.34ZM224.806 185.54L230.186 177.92V185.54H224.806Z" fill="#222222"/>
<path d="M255.18 190.34H257.02V175.88H253.26V177.54H255.18V190.34ZM261.666 175.86V184.02H263.386C263.866 182.88 264.926 182.12 266.386 182.12C268.486 182.12 269.546 183.32 269.546 185.38C269.546 187.36 268.566 188.84 266.366 188.84C264.666 188.84 263.486 187.94 263.146 186.42H261.366C261.726 188.76 263.466 190.38 266.346 190.38C269.726 190.38 271.286 188.14 271.286 185.34C271.286 183.1 270.166 180.56 266.646 180.56C265.226 180.56 263.946 181.2 263.346 182.02V177.46H270.366V175.86H261.666Z" fill="#222222"/>
<path d="M66.68 245.5H68.52V231.04H64.76V232.7H66.68V245.5ZM72.0662 231.08V232.64H79.7863L74.1463 245.5H75.9863L81.5463 232.46V231.08H72.0662Z" fill="#222222"/>
<path d="M103.68 245.5H105.52V231.04H101.76V232.7H103.68V245.5ZM112.286 237.98C110.666 238.46 109.606 239.78 109.606 241.6C109.606 244.22 111.666 245.9 114.706 245.9C117.766 245.9 119.846 244.22 119.846 241.6C119.846 239.8 118.786 238.48 117.146 237.98C118.566 237.42 119.466 236.22 119.466 234.66C119.466 232.56 117.846 230.82 114.706 230.82C111.566 230.82 109.966 232.54 109.966 234.66C109.966 236.28 110.806 237.4 112.286 237.98ZM114.706 237.38C112.946 237.38 111.726 236.4 111.726 234.9C111.726 233.2 112.926 232.34 114.706 232.34C116.526 232.34 117.706 233.22 117.706 234.88C117.706 236.38 116.486 237.38 114.706 237.38ZM114.706 238.78C116.606 238.78 118.046 239.68 118.046 241.54C118.046 243.22 116.766 244.38 114.706 244.38C112.646 244.38 111.346 243.24 111.346 241.54C111.346 239.62 112.846 238.78 114.706 238.78Z" fill="#222222"/>
<path d="M141.68 245.5H143.52V231.04H139.76V232.7H141.68V245.5ZM148.306 241.62C148.506 243.74 149.906 245.52 152.786 245.52C156.586 245.52 157.686 242.82 157.686 238C157.686 233.52 156.546 230.76 152.626 230.76C149.506 230.76 147.866 232.76 147.866 235.52C147.866 238.58 149.846 240.24 152.506 240.24C154.066 240.24 155.506 239.54 156.086 238.32C156.146 242.56 155.006 244 152.886 244C151.206 244 150.246 243.12 149.986 241.62H148.306ZM152.806 238.7C150.646 238.7 149.606 237.34 149.606 235.48C149.606 233.56 150.786 232.28 152.666 232.28C154.746 232.28 155.866 233.66 155.866 235.62C155.866 237.56 154.546 238.7 152.806 238.7Z" fill="#222222"/>
<path d="M175.52 245.34H185.14V243.82H178.26C180.84 241.72 184.72 238.66 184.72 235.06C184.72 232.38 182.96 230.78 180.24 230.78C177.64 230.78 175.7 232.38 175.58 235.46H177.34C177.42 233.64 178.38 232.34 180.26 232.34C182.22 232.34 182.92 233.54 182.92 235.14C182.92 238.1 179.32 240.98 175.52 244.04V245.34ZM188.244 238.12C188.244 242.32 189.284 245.5 193.284 245.5C197.264 245.5 198.304 242.32 198.304 238.12C198.304 233.98 197.264 230.82 193.284 230.82C189.284 230.82 188.244 233.98 188.244 238.12ZM196.504 238.12C196.504 241.24 196.124 243.84 193.284 243.84C190.424 243.84 190.044 241.24 190.044 238.12C190.044 235.12 190.424 232.48 193.284 232.48C196.124 232.48 196.504 235.12 196.504 238.12Z" fill="#222222"/>
<path d="M217.02 245.34H226.64V243.82H219.76C222.34 241.72 226.22 238.66 226.22 235.06C226.22 232.38 224.46 230.78 221.74 230.78C219.14 230.78 217.2 232.38 217.08 235.46H218.84C218.92 233.64 219.88 232.34 221.76 232.34C223.72 232.34 224.42 233.54 224.42 235.14C224.42 238.1 220.82 240.98 217.02 244.04V245.34ZM231.184 245.5H233.024V231.04H229.264V232.7H231.184V245.5Z" fill="#222222"/>
<path d="M252.02 245.34H261.64V243.82H254.76C257.34 241.72 261.22 238.66 261.22 235.06C261.22 232.38 259.46 230.78 256.74 230.78C254.14 230.78 252.2 232.38 252.08 235.46H253.84C253.92 233.64 254.88 232.34 256.76 232.34C258.72 232.34 259.42 233.54 259.42 235.14C259.42 238.1 255.82 240.98 252.02 244.04V245.34ZM264.524 245.34H274.144V243.82H267.264C269.844 241.72 273.724 238.66 273.724 235.06C273.724 232.38 271.964 230.78 269.244 230.78C266.644 230.78 264.704 232.38 264.584 235.46H266.344C266.424 233.64 267.384 232.34 269.264 232.34C271.224 232.34 271.924 233.54 271.924 235.14C271.924 238.1 268.324 240.98 264.524 244.04V245.34Z" fill="#222222"/>
<path d="M290.02 245.34H299.64V243.82H292.76C295.34 241.72 299.22 238.66 299.22 235.06C299.22 232.38 297.46 230.78 294.74 230.78C292.14 230.78 290.2 232.38 290.08 235.46H291.84C291.92 233.64 292.88 232.34 294.76 232.34C296.72 232.34 297.42 233.54 297.42 235.14C297.42 238.1 293.82 240.98 290.02 244.04V245.34ZM302.704 234.68H304.484C304.664 233.28 305.684 232.32 307.384 232.32C309.124 232.32 310.044 233.28 310.044 234.66C310.044 236.34 308.744 237.08 306.324 237.1H305.844V238.62H306.304C308.904 238.62 310.324 239.4 310.324 241.44C310.324 242.92 309.404 244.06 307.464 244.06C305.544 244.06 304.424 242.88 304.244 241.34H302.484C302.704 244.14 304.744 245.6 307.484 245.6C310.504 245.6 312.064 243.84 312.064 241.6C312.064 239.52 310.924 238.28 309.244 237.88V237.78C310.764 237.44 311.804 236.14 311.804 234.48C311.804 232.4 310.264 230.76 307.444 230.76C304.764 230.76 302.884 232.2 302.704 234.68Z" fill="#222222"/>
<path d="M292.68 190.34H294.52V175.88H290.76V177.54H292.68V190.34ZM308.386 179.32C308.146 177.3 306.746 175.58 303.986 175.58C300.326 175.58 298.866 178.38 298.866 182.92C298.866 187.3 299.886 190.38 304.166 190.38C307.326 190.38 308.886 188.22 308.886 185.58C308.886 182.54 307.066 180.76 304.366 180.76C302.646 180.76 301.066 181.56 300.446 182.98C300.426 178.68 301.666 177.1 303.966 177.1C305.606 177.1 306.426 177.92 306.706 179.32H308.386ZM303.986 182.3C306.066 182.3 307.126 183.6 307.126 185.64C307.126 187.6 305.946 188.86 304.066 188.86C301.786 188.86 300.666 187.36 300.666 185.44C300.666 183.28 302.326 182.3 303.986 182.3Z" fill="#222222"/>
<path fill-rule="evenodd" clip-rule="evenodd" d="M84 17C57.4903 17 36 38.4903 36 65V245C36 271.51 57.4903 293 84 293H290C316.51 293 338 271.51 338 245V65C338 38.4903 316.51 17 290 17H84ZM34 65C34 37.3858 56.3858 15 84 15H290C317.614 15 340 37.3858 340 65V245C340 272.614 317.614 295 290 295H84C56.3858 295 34 272.614 34 245V65Z" fill="white"/>
</g>
<defs>
<filter id="filter0_dd_578_870" x="0" y="0" width="374" height="348" filterUnits="userSpaceOnUse" color-interpolation-filters="sRGB">
<feFlood flood-opacity="0" result="BackgroundImageFix"/>
<feColorMatrix in="SourceAlpha" type="matrix" values="0 0 0 0 0 0 0 0 0 0 0 0 0 0 0 0 0 0 127 0" result="hardAlpha"/>
<feOffset dy="19"/>
<feGaussianBlur stdDeviation="17"/>
<feColorMatrix type="matrix" values="0 0 0 0 1 0 0 0 0 0.65098 0 0 0 0 0 0 0 0 0.15 0"/>
<feBlend mode="normal" in2="BackgroundImageFix" result="effect1_dropShadow_578_870"/>
<feColorMatrix in="SourceAlpha" type="matrix" values="0 0 0 0 0 0 0 0 0 0 0 0 0 0 0 0 0 0 127 0" result="hardAlpha"/>
<feOffset dy="4"/>
<feGaussianBlur stdDeviation="2"/>
<feColorMatrix type="matrix" values="0 0 0 0 1 0 0 0 0 0.65098 0 0 0 0 0 0 0 0 0.1 0"/>
<feBlend mode="normal" in2="effect1_dropShadow_578_870" result="effect2_dropShadow_578_870"/>
<feBlend mode="normal" in="SourceGraphic" in2="effect2_dropShadow_578_870" result="shape"/>
</filter>
</defs>
</svg>
