<svg viewBox="0 0 525 166" xmlns="http://www.w3.org/2000/svg">
  <g fill-rule="nonzero" fill="none">
    <path d="M485.414 0H39.565c-1.521 0-3.025 0-4.543.008-1.27.009-2.53.033-3.813.053a54.831 54.831 0 00-8.315.733 27.656 27.656 0 00-7.888 2.602 26.714 26.714 0 00-6.717 4.892A25.972 25.972 0 003.4 15.015a27.397 27.397 0 00-2.594 7.9 53.926 53.926 0 00-.743 8.307C.024 32.495.02 33.772 0 35.044v95.924c.02 1.289.024 2.537.063 3.826.033 2.784.281 5.562.743 8.308a27.34 27.34 0 002.594 7.903 25.762 25.762 0 004.89 6.7 26.037 26.037 0 006.716 4.89 27.804 27.804 0 007.888 2.619c2.75.451 5.529.697 8.315.733 1.283.029 2.543.045 3.813.045 1.518.008 3.022.008 4.543.008h445.849c1.49 0 3.006 0 4.498-.008 1.264 0 2.56-.016 3.825-.045a55.098 55.098 0 008.3-.733 28.233 28.233 0 007.918-2.618 26.049 26.049 0 006.71-4.892 26.538 26.538 0 004.904-6.7 27.409 27.409 0 002.569-7.902c.462-2.746.72-5.523.77-8.308.016-1.289.016-2.537.016-3.826.032-1.508.032-3.007.032-4.54V39.576c0-1.52 0-3.027-.032-4.531 0-1.273 0-2.55-.016-3.822a56.06 56.06 0 00-.77-8.308 27.465 27.465 0 00-2.57-7.899 26.833 26.833 0 00-11.613-11.619 28.08 28.08 0 00-7.919-2.602 54.122 54.122 0 00-8.299-.734c-1.264-.02-2.56-.044-3.825-.052-1.492-.009-3.007-.009-4.498-.009z" fill="#A6A6A6"/>
    <path d="M35.043 162.369c-1.265 0-2.498-.016-3.753-.045a52.642 52.642 0 01-7.756-.677 24.414 24.414 0 01-6.875-2.273 22.432 22.432 0 01-5.797-4.22 22.081 22.081 0 01-4.234-5.795 23.747 23.747 0 01-2.254-6.877 51.52 51.52 0 01-.69-7.781c-.027-.876-.061-3.79-.061-3.79V35.044s.036-2.87.06-3.712c.032-2.604.262-5.2.687-7.77a23.888 23.888 0 012.256-6.897 22.3 22.3 0 014.212-5.802 23.095 23.095 0 015.82-4.243 24.162 24.162 0 016.86-2.257 52.221 52.221 0 017.782-.681l3.745-.05H489.89l3.79.052c2.583.03 5.161.256 7.711.675a24.64 24.64 0 016.934 2.273 23.213 23.213 0 0110.02 10.043 23.917 23.917 0 012.222 6.843c.43 2.59.672 5.207.721 7.832.012 1.175.012 2.438.012 3.694.033 1.556.033 3.038.033 4.53v86.855c0 1.508 0 2.979-.033 4.462 0 1.35 0 2.586-.016 3.858a52.84 52.84 0 01-.71 7.692 23.818 23.818 0 01-2.24 6.93 22.743 22.743 0 01-4.214 5.751 22.462 22.462 0 01-5.807 4.244 24.322 24.322 0 01-6.922 2.281 52.04 52.04 0 01-7.756.677 162.44 162.44 0 01-3.724.045l-4.498.008-450.371-.008z" fill="#000"/>
    <g fill="#FFF">
      <path d="M102.526 83.807c.09-7.007 3.786-13.48 9.79-17.15a21.079 21.079 0 00-16.581-8.912c-6.977-.728-13.74 4.15-17.295 4.15-3.624 0-9.098-4.078-14.992-3.957-7.756.25-14.81 4.527-18.584 11.267-8.035 13.83-2.041 34.157 5.656 45.336 3.85 5.475 8.351 11.59 14.24 11.373 5.763-.238 7.915-3.654 14.871-3.654 6.892 0 8.911 3.654 14.92 3.516 6.183-.1 10.08-5.499 13.795-11.025a45.17 45.17 0 006.308-12.773c-7.344-3.089-12.12-10.243-12.128-18.17zM91.177 50.393a20.048 20.048 0 004.63-14.418 20.636 20.636 0 00-13.326 6.855 19.08 19.08 0 00-4.751 13.884 17.069 17.069 0 0013.447-6.321z"/>
      <g>
        <path d="M147.743 60.681V39.518h-7.799v-3.483h19.431v3.483h-7.782v21.163zM177.28 55.659c-1.035 3.508-4.45 5.775-8.106 5.38a8.52 8.52 0 01-6.557-2.81 8.415 8.415 0 01-2.085-6.79 8.545 8.545 0 012.082-6.815 8.651 8.651 0 016.543-2.901c5.206 0 8.346 3.535 8.346 9.376v1.28h-13.21v.206a4.899 4.899 0 001.305 3.76 4.959 4.959 0 003.677 1.568 4.492 4.492 0 004.45-2.254h3.555zm-12.987-5.994h9.45a4.472 4.472 0 00-1.23-3.423 4.527 4.527 0 00-3.376-1.395 4.8 4.8 0 00-3.444 1.393 4.742 4.742 0 00-1.4 3.425zm2.645-10.693l4.313-5.875h4.329l-4.828 5.875h-3.814zM182.631 34.821h3.692v25.86h-3.692zM208.204 55.659c-1.035 3.508-4.45 5.775-8.106 5.38a8.52 8.52 0 01-6.556-2.81 8.415 8.415 0 01-2.086-6.79 8.545 8.545 0 012.083-6.815 8.651 8.651 0 016.543-2.901c5.205 0 8.346 3.535 8.346 9.376v1.28h-13.211v.206a4.899 4.899 0 001.306 3.76 4.959 4.959 0 003.676 1.568 4.492 4.492 0 004.451-2.254h3.554zm-12.987-5.994h9.45a4.472 4.472 0 00-1.23-3.423 4.527 4.527 0 00-3.376-1.395 4.8 4.8 0 00-3.444 1.393 4.742 4.742 0 00-1.4 3.425zm2.645-10.693l4.313-5.875h4.33l-4.829 5.875h-3.814zM225.634 48.16a4.175 4.175 0 00-4.418-3.158c-3.092 0-4.982 2.356-4.982 6.319 0 4.031 1.907 6.44 4.982 6.44a4.065 4.065 0 004.418-3.058h3.591c-.494 3.916-4.038 6.728-7.989 6.337a8.615 8.615 0 01-6.663-2.83 8.508 8.508 0 01-2.117-6.89 8.448 8.448 0 012.138-6.82 8.554 8.554 0 016.622-2.777c3.983-.365 7.534 2.49 8.01 6.438h-3.592zM234.126 34.821h3.66v10.25h.292a5.762 5.762 0 015.704-3.332c1.834-.1 3.616.62 4.862 1.96a6.104 6.104 0 011.581 4.974V60.68h-3.696V49.578c0-2.97-1.392-4.475-4-4.475a4.385 4.385 0 00-3.458 1.269 4.33 4.33 0 00-1.253 3.446v10.863h-3.692V34.82zM254.867 55.42c0-3.347 2.507-5.277 6.958-5.551l5.068-.29v-1.606c0-1.965-1.307-3.074-3.83-3.074-2.061 0-3.49.752-3.9 2.067h-3.574c.378-3.194 3.4-5.243 7.644-5.243 4.69 0 7.334 2.321 7.334 6.25V60.68h-3.553v-2.614h-.292a6.305 6.305 0 01-5.619 2.92 5.673 5.673 0 01-4.36-1.407 5.604 5.604 0 01-1.876-4.16zm12.026-1.588v-1.555l-4.569.29c-2.576.172-3.745 1.043-3.745 2.682 0 1.674 1.461 2.649 3.47 2.649a4.428 4.428 0 003.289-1.012 4.376 4.376 0 001.555-3.054zM276.348 42.082h3.554v2.851h.276a5.075 5.075 0 015.052-3.16 7.806 7.806 0 011.647.153v3.623a10.171 10.171 0 00-2.061-.222 4.4 4.4 0 00-3.362 1.135 4.346 4.346 0 00-1.414 3.237v10.982h-3.692v-18.6zM290.273 62.542h3.777c.313 1.35 1.875 2.22 4.366 2.22 3.075 0 4.897-1.451 4.897-3.91v-3.57h-.276a6.3 6.3 0 01-5.774 3.124c-4.775 0-7.729-3.67-7.729-9.239 0-5.67 2.986-9.394 7.766-9.394a6.491 6.491 0 015.875 3.28h.292v-2.971h3.538v18.752c0 4.253-3.351 6.952-8.642 6.952-4.674 0-7.697-2.083-8.09-5.244zm13.109-11.393c0-3.705-1.927-6.078-5.072-6.078-3.177 0-4.962 2.373-4.962 6.078 0 3.707 1.785 6.081 4.962 6.081 3.165 0 5.072-2.356 5.072-6.08zM328.707 55.659c-1.035 3.508-4.45 5.775-8.106 5.38a8.52 8.52 0 01-6.556-2.81 8.415 8.415 0 01-2.086-6.79 8.545 8.545 0 012.083-6.815 8.651 8.651 0 016.543-2.901c5.205 0 8.345 3.535 8.345 9.376v1.28h-13.21v.206a4.899 4.899 0 001.306 3.76 4.959 4.959 0 003.676 1.568 4.492 4.492 0 004.451-2.254h3.554zm-12.987-5.994h9.45a4.472 4.472 0 00-1.23-3.423 4.527 4.527 0 00-3.376-1.395 4.8 4.8 0 00-3.444 1.393 4.742 4.742 0 00-1.4 3.425zM333.888 42.082h3.555v2.851h.276a5.075 5.075 0 015.05-3.16 7.806 7.806 0 011.648.153v3.623a10.171 10.171 0 00-2.06-.222 4.4 4.4 0 00-3.363 1.135 4.346 4.346 0 00-1.414 3.237v10.982h-3.692v-18.6zM357.72 51.373c0-5.877 3.04-9.6 7.766-9.6a6.172 6.172 0 015.737 3.263h.276V34.821h3.692v25.86h-3.538v-2.939h-.292a6.501 6.501 0 01-5.875 3.245c-4.759 0-7.765-3.723-7.765-9.614zm3.815 0c0 3.945 1.87 6.319 4.998 6.319 3.112 0 5.035-2.408 5.035-6.303 0-3.876-1.943-6.318-5.035-6.318-3.108 0-4.998 2.39-4.998 6.302zM380.182 55.42c0-3.347 2.507-5.277 6.958-5.551l5.067-.29v-1.606c0-1.965-1.306-3.074-3.83-3.074-2.06 0-3.489.752-3.899 2.067h-3.574c.377-3.194 3.4-5.243 7.644-5.243 4.69 0 7.335 2.321 7.335 6.25V60.68h-3.554v-2.614h-.292a6.305 6.305 0 01-5.62 2.92 5.673 5.673 0 01-4.36-1.407 5.604 5.604 0 01-1.875-4.16zm12.025-1.588v-1.555l-4.568.29c-2.576.172-3.745 1.043-3.745 2.682 0 1.674 1.46 2.649 3.47 2.649a4.428 4.428 0 003.288-1.012 4.376 4.376 0 001.555-3.054zM401.665 42.082h3.554v2.954h.276a5.605 5.605 0 015.583-3.313 6.104 6.104 0 014.91 1.91 6.026 6.026 0 011.565 5.007v12.04h-3.692V49.563c0-2.989-1.306-4.475-4.037-4.475a4.304 4.304 0 00-3.323 1.336 4.251 4.251 0 00-1.144 3.377v10.88h-3.692V42.083zM430.102 41.723c4.208 0 6.959 1.946 7.32 5.225h-3.542c-.341-1.365-1.684-2.236-3.778-2.236-2.06 0-3.627.972-3.627 2.424 0 1.111.946 1.811 2.974 2.273l3.108.716c3.558.82 5.226 2.341 5.226 5.074 0 3.501-3.282 5.84-7.75 5.84-4.45 0-7.351-1.998-7.68-5.293h3.696a3.8 3.8 0 004.07 2.32c2.3 0 3.935-1.023 3.935-2.51 0-1.11-.876-1.827-2.75-2.27l-3.263-.753c-3.558-.837-5.205-2.424-5.205-5.191 0-3.298 3.039-5.62 7.266-5.62z"/>
      </g>
    </g>
    <g fill="#FFF">
      <path d="M145.822 74.456h7.71v51.865h-7.71zM162.82 93.434l4.212-18.978h7.49l-5.101 18.978zM203.656 112.303H184.03l-4.713 14.018h-8.313l18.59-51.865h8.636l18.59 51.865h-8.455l-4.709-14.018zm-17.593-6.469h15.557l-7.67-22.752h-.214l-7.673 22.752zM256.963 107.417c0 11.75-6.243 19.3-15.666 19.3-4.87.256-9.458-2.313-11.811-6.616h-.178v18.73h-7.706V88.506h7.459v6.289h.141a13.296 13.296 0 0111.953-6.685c9.528 0 15.808 7.586 15.808 19.306zm-7.92 0c0-7.658-3.927-12.69-9.92-12.69-5.888 0-9.848 5.139-9.848 12.69 0 7.619 3.96 12.721 9.848 12.721 5.993 0 9.92-4.996 9.92-12.721zM298.279 107.417c0 11.75-6.244 19.3-15.666 19.3-4.87.256-9.458-2.313-11.812-6.616h-.178v18.73h-7.703V88.506h7.456v6.289h.142a13.296 13.296 0 0111.953-6.685c9.528 0 15.808 7.586 15.808 19.306zm-7.92 0c0-7.658-3.928-12.69-9.92-12.69-5.888 0-9.848 5.139-9.848 12.69 0 7.619 3.96 12.721 9.847 12.721 5.993 0 9.92-4.996 9.92-12.721zM325.587 111.87c.57 5.144 5.53 8.52 12.309 8.52 6.495 0 11.168-3.376 11.168-8.014 0-4.025-2.819-6.436-9.492-8.088l-6.673-1.62c-9.454-2.3-13.844-6.755-13.844-13.982 0-8.948 7.742-15.095 18.736-15.095 10.88 0 18.338 6.147 18.59 15.095h-7.779c-.466-5.176-4.713-8.3-10.92-8.3-6.208 0-10.456 3.161-10.456 7.762 0 3.666 2.713 5.824 9.35 7.476l5.673 1.403c10.564 2.516 14.953 6.792 14.953 14.379 0 9.703-7.673 15.78-19.877 15.78-11.419 0-19.128-5.935-19.626-15.315h7.888zM373.837 79.558v8.949h7.138v6.146h-7.138v20.848c0 3.238 1.429 4.747 4.567 4.747a23.91 23.91 0 002.535-.18v6.11c-1.411.266-2.845.386-4.28.36-7.6 0-10.564-2.876-10.564-10.21V94.654h-5.459v-6.146h5.458v-8.949h7.743zM385.105 107.417c0-11.9 6.957-19.375 17.804-19.375 10.885 0 17.809 7.476 17.809 19.375 0 11.93-6.888 19.373-17.809 19.373-10.916 0-17.804-7.443-17.804-19.373zm27.761 0c0-8.163-3.713-12.98-9.957-12.98-6.243 0-9.952 4.853-9.952 12.98 0 8.194 3.709 12.974 9.952 12.974 6.244 0 9.957-4.78 9.957-12.974zM427.07 88.507h7.35v6.436h.178c1.025-4.144 4.794-6.995 9.03-6.832.888-.003 1.773.094 2.64.29v7.26a10.7 10.7 0 00-3.462-.47 7.737 7.737 0 00-6.002 2.49 7.858 7.858 0 00-2.028 6.212v22.428h-7.705V88.507zM481.791 115.215c-1.037 6.864-7.673 11.575-16.164 11.575-10.92 0-17.7-7.37-17.7-19.194 0-11.862 6.816-19.554 17.376-19.554 10.386 0 16.917 7.186 16.917 18.653v2.66h-26.514v.468a9.892 9.892 0 002.65 7.651 9.741 9.741 0 007.449 3.06c3.74.353 7.265-1.81 8.67-5.319h7.316zm-26.048-11.285h18.768a9.132 9.132 0 00-2.522-6.826 8.996 8.996 0 00-6.686-2.773 9.469 9.469 0 00-6.766 2.793 9.609 9.609 0 00-2.794 6.806z"/>
    </g>
  </g>
</svg>
