<svg viewBox="0 0 543 161" xmlns="http://www.w3.org/2000/svg">
  <defs>
    <linearGradient x1="61.0098971%" y1="4.96282585%" x2="26.5599312%" y2="71.9036937%" id="a">
      <stop stop-color="#00A0FF" offset="0%"/>
      <stop stop-color="#00A1FF" offset="0.657445%"/>
      <stop stop-color="#00BEFF" offset="26.01%"/>
      <stop stop-color="#00D2FF" offset="51.22%"/>
      <stop stop-color="#00DFFF" offset="76.04%"/>
      <stop stop-color="#00E3FF" offset="100%"/>
    </linearGradient>
    <linearGradient x1="107.582201%" y1="50.0020383%" x2="-130.468599%" y2="50.0020383%" id="b">
      <stop stop-color="#FFE000" offset="0%"/>
      <stop stop-color="#FFBD00" offset="40.87%"/>
      <stop stop-color="orange" offset="77.54%"/>
      <stop stop-color="#FF9C00" offset="100%"/>
    </linearGradient>
    <linearGradient x1="86.2455547%" y1="30.8652956%" x2="-50.144516%" y2="136.178951%" id="c">
      <stop stop-color="#FF3A44" offset="0%"/>
      <stop stop-color="#C31162" offset="100%"/>
    </linearGradient>
    <linearGradient x1="-18.8018206%" y1="-11.9786642%" x2="42.098242%" y2="35.0423981%" id="d">
      <stop stop-color="#32A071" offset="0%"/>
      <stop stop-color="#2DA771" offset="6.85%"/>
      <stop stop-color="#15CF74" offset="47.62%"/>
      <stop stop-color="#06E775" offset="80.09%"/>
      <stop stop-color="#00F076" offset="100%"/>
    </linearGradient>
  </defs>
  <g fill-rule="nonzero" fill="none">
    <path d="M522.894 161H20.11C9.05 161 0 151.944 0 140.876V20.124C0 9.056 9.05 0 20.11 0h502.78C533.95 0 543 9.056 543 20.124v120.752c0 11.068-9.045 20.124-20.106 20.124z" fill="#000"/>
    <path d="M522.894 3.219c9.314 0 16.894 7.585 16.894 16.905v120.752c0 9.32-7.58 16.905-16.894 16.905H20.11c-9.314 0-16.893-7.585-16.893-16.905V20.124c0-9.32 7.58-16.905 16.893-16.905h502.784m0-3.219H20.11C9.05 0 0 9.056 0 20.124v120.752C0 151.944 9.05 161 20.11 161h502.78c11.06 0 20.11-9.056 20.11-20.124V20.124C543 9.056 533.955 0 522.894 0z" fill="#A6A6A6"/>
    <path d="M273.983 87.068c-9.461 0-17.171 7.245-17.171 17.232 0 9.923 7.71 17.232 17.17 17.232 9.462 0 17.172-7.31 17.172-17.232 0-9.987-7.714-17.232-17.171-17.232zm0 27.675c-5.182 0-9.654-4.306-9.654-10.443 0-6.201 4.472-10.444 9.654-10.444 5.182 0 9.654 4.243 9.654 10.444 0 6.137-4.472 10.443-9.654 10.443zM236.52 87.068c-9.461 0-17.171 7.245-17.171 17.232 0 9.923 7.71 17.232 17.171 17.232 9.461 0 17.171-7.31 17.171-17.232 0-9.987-7.71-17.232-17.171-17.232zm0 27.675c-5.186 0-9.654-4.306-9.654-10.443 0-6.201 4.472-10.444 9.654-10.444 5.182 0 9.654 4.243 9.654 10.444 0 6.137-4.472 10.443-9.654 10.443zm-44.564-22.388v7.309h17.369c-.521 4.111-1.882 7.114-3.952 9.204-2.528 2.546-6.48 5.35-13.413 5.35-10.692 0-19.053-8.679-19.053-19.452 0-10.773 8.361-19.453 19.053-19.453 5.766 0 9.982 2.284 13.09 5.22l5.119-5.156C205.827 71.197 200.06 68 191.96 68 177.313 68 165 80.008 165 94.762c0 14.753 12.313 26.761 26.96 26.761 7.908 0 13.867-2.61 18.532-7.507 4.796-4.83 6.287-11.62 6.287-17.101 0-1.697-.13-3.266-.39-4.569h-24.433v.009zm182.25 5.68c-1.424-3.849-5.766-10.963-14.648-10.963-8.814 0-16.134 6.983-16.134 17.232 0 9.66 7.257 17.232 16.978 17.232 7.84 0 12.376-4.83 14.257-7.635l-5.833-3.916c-1.944 2.872-4.602 4.762-8.424 4.762-3.825 0-6.546-1.764-8.293-5.22l22.874-9.529-.777-1.963zm-23.332 5.745c-.193-6.658 5.12-10.05 8.94-10.05 2.982 0 5.51 1.501 6.35 3.654l-15.29 6.396zm-18.6 16.707h7.518V69.836h-7.517v50.651zm-12.312-29.566h-.26c-1.684-2.022-4.926-3.849-9.008-3.849-8.554 0-16.394 7.571-16.394 17.295 0 9.661 7.84 17.169 16.394 17.169 4.082 0 7.324-1.827 9.008-3.917h.26v2.479c0 6.594-3.498 10.117-9.138 10.117-4.602 0-7.454-3.328-8.617-6.137l-6.547 2.741c1.882 4.568 6.87 10.181 15.164 10.181 8.815 0 16.265-5.22 16.265-17.951v-30.94h-7.131v2.812h.004zm-8.617 23.822c-5.182 0-9.524-4.374-9.524-10.38 0-6.07 4.342-10.507 9.524-10.507 5.12 0 9.138 4.438 9.138 10.507 0 6.006-4.019 10.38-9.138 10.38zm98.073-44.907h-17.986v50.651h7.504v-19.19h10.482c8.319 0 16.495-6.066 16.495-15.73 0-9.662-8.176-15.731-16.495-15.731zm.193 24.414h-10.675V76.887h10.675c5.61 0 8.798 4.678 8.798 8.68 0 3.924-3.188 8.683-8.798 8.683zm46.387-7.275c-5.434 0-11.062 2.41-13.392 7.753l6.664 2.8c1.424-2.8 4.074-3.714 6.858-3.714 3.88 0 7.828 2.348 7.895 6.518v.52c-1.36-.782-4.271-1.954-7.828-1.954-7.18 0-14.492 3.976-14.492 11.404 0 6.776 5.887 11.141 12.485 11.141 5.047 0 7.827-2.28 9.574-4.953h.26v3.908h7.245V100.98c-.004-8.988-6.669-14.004-15.27-14.004zm-.907 27.76c-2.457 0-5.888-1.24-5.888-4.302 0-3.908 4.27-5.41 7.958-5.41 3.3 0 4.85.72 6.858 1.696-.584 4.691-4.595 8.016-8.928 8.016zm42.569-26.652l-8.605 21.96h-.26l-8.928-21.96h-8.088l13.392 30.691-7.635 17.071h7.828L506 88.083h-8.34zm-67.606 32.404h7.504V69.836h-7.504v50.651z" fill="#FFF"/>
    <path d="M1.874 1.64C.702 2.881.013 4.808.013 7.302v89.106c0 2.499.693 4.42 1.861 5.662l.299.29 49.87-49.916v-1.178L2.168 1.35l-.294.29z" fill="url(#a)" transform="translate(40 29)"/>
    <path d="M68.664 69.088L52.043 52.444v-1.178l16.625-16.64.374.215 19.697 11.201c5.627 3.2 5.627 8.434 0 11.635l-19.697 11.2-.378.211z" fill="url(#b)" transform="translate(40 29)"/>
    <path d="M69.042 68.874L52.039 51.855 1.874 102.07c1.854 1.964 4.917 2.208 8.367.248l58.8-33.444" fill="url(#c)" transform="translate(40 29)"/>
    <path d="M69.042 34.836L10.237 1.396c-3.45-1.96-6.51-1.716-8.367.249L52.04 51.859l17.003-17.023z" fill="url(#d)" transform="translate(40 29)"/>
    <g fill="#000">
      <path d="M108.668 97.5l-58.43 33.229c-3.27 1.86-6.191 1.733-8.065.042l-.299.299.299.29c1.874 1.69 4.795 1.817 8.064-.042l58.805-33.444-.374-.375z" opacity="0.2"/>
      <path d="M41.874 130.48c-1.172-1.24-1.861-3.167-1.861-5.66v.588c0 2.494.693 4.42 1.861 5.662l.299-.299-.299-.29z" opacity="0.12"/>
    </g>
    <path d="M128.735 86.083L108.668 97.5l.374.375 19.697-11.202c2.811-1.598 4.219-3.705 4.219-5.817-.24 1.91-1.668 3.777-4.223 5.228z" fill="#000" opacity="0.12"/>
    <path d="M50.237 30.985l78.498 44.642c2.55 1.45 3.983 3.318 4.219 5.228 0-2.107-1.408-4.219-4.22-5.817L50.238 30.396c-5.627-3.2-10.229-.542-10.229 5.91v.59c0-6.453 4.602-9.107 10.23-5.91z" fill="#FFF" opacity="0.25"/>
    <g fill="#FFF">
      <path d="M173.783 52.446h-7.775V27.541h7.775c3.795 0 6.881 1.166 9.17 3.468 2.286 2.298 3.448 5.322 3.448 8.983 0 3.66-1.162 6.684-3.447 8.982-2.286 2.307-5.376 3.472-9.171 3.472zm-3.87-3.765h3.874c2.659 0 4.793-.764 6.332-2.277 1.54-1.506 2.32-3.666 2.32-6.412 0-2.726-.78-4.877-2.32-6.396-1.543-1.518-3.673-2.29-6.332-2.29h-3.875v17.375zM193.848 52.446h-3.9V27.541h3.9zM205.762 52.983c-1.824 0-3.628-.6-5.36-1.786-1.748-1.195-2.91-2.898-3.446-5.05l-.084-.335 3.58-1.447.114.445a6.133 6.133 0 001.942 3.145c.98.851 2.046 1.262 3.254 1.262 1.254 0 2.335-.33 3.212-.98.851-.63 1.266-1.464 1.266-2.555 0-1.224-.415-2.138-1.27-2.793-.91-.696-2.39-1.358-4.403-1.975-2.185-.688-3.87-1.598-5.011-2.705-1.175-1.14-1.77-2.612-1.77-4.374 0-1.832.734-3.45 2.185-4.801 1.442-1.346 3.333-2.03 5.623-2.03 2.126 0 3.887.545 5.233 1.619 1.338 1.07 2.219 2.26 2.621 3.543l.11.349-3.586 1.492-.122-.444c-.18-.675-.641-1.321-1.367-1.912-.717-.587-1.669-.885-2.826-.885-1.095 0-2.034.302-2.793.906-.746.587-1.111 1.291-1.111 2.155 0 .776.331 1.418 1.01 1.958.738.588 1.85 1.124 3.292 1.598 1.22.394 2.21.763 3.02 1.128.813.365 1.652.86 2.49 1.472a6.079 6.079 0 011.975 2.378c.44.935.663 2.03.663 3.25 0 1.229-.26 2.344-.767 3.317a6.307 6.307 0 01-2.05 2.336c-.831.558-1.733.99-2.68 1.279a9.994 9.994 0 01-2.944.44zM221.747 52.446h-3.9V27.541h8.617c2.135 0 4.01.721 5.57 2.143 1.572 1.426 2.369 3.254 2.369 5.43 0 2.173-.797 4.001-2.37 5.431-1.56 1.422-3.434 2.143-5.569 2.143h-4.717v9.758zm0-13.528h4.785c1.195 0 2.121-.386 2.83-1.178.721-.81 1.074-1.67 1.074-2.625 0-.96-.353-1.82-1.074-2.626-.713-.792-1.64-1.182-2.83-1.182h-4.785v7.611zM248.778 52.983c-3.62 0-6.689-1.27-9.121-3.774-2.428-2.5-3.665-5.598-3.665-9.217 0-3.62 1.233-6.718 3.665-9.218 2.432-2.503 5.502-3.774 9.12-3.774 3.594 0 6.66 1.275 9.109 3.791 2.44 2.512 3.677 5.607 3.677 9.2 0 3.615-1.233 6.714-3.665 9.218-2.432 2.504-5.502 3.774-9.12 3.774zm-6.261-6.353c1.698 1.72 3.803 2.587 6.26 2.587 2.462 0 4.567-.872 6.261-2.587 1.703-1.724 2.562-3.955 2.562-6.634 0-2.68-.86-4.915-2.562-6.634-1.694-1.72-3.799-2.588-6.26-2.588-2.458 0-4.563.872-6.261 2.588-1.699 1.723-2.558 3.954-2.558 6.634s.86 4.91 2.558 6.634zM284.488 52.446h-3.858l-.117-.188-11.607-18.62.096 3.385v15.423h-3.9V27.541h4.395l11.184 17.906-.092-3.388V27.541h3.899zM293.106 52.446h-3.896V27.541h3.896zM307.41 52.446h-9.587V27.541h9.117c1.975 0 3.715.663 5.17 1.97 1.46 1.322 2.202 3.004 2.202 4.995 0 1.22-.323 2.32-.96 3.255a5.951 5.951 0 01-1.896 1.79 6.496 6.496 0 012.436 1.946c.818 1.061 1.23 2.298 1.23 3.678 0 2.084-.772 3.837-2.307 5.212-1.518 1.368-3.338 2.06-5.406 2.06zm-5.691-3.765h5.829c1.078 0 1.925-.365 2.596-1.112.679-.759 1.006-1.564 1.006-2.461 0-.89-.34-1.686-1.04-2.433-.692-.742-1.573-1.102-2.7-1.102h-5.691v7.108zm0-10.807h5.22c1.062 0 1.888-.336 2.517-1.032.641-.7.956-1.447.956-2.268 0-.827-.302-1.565-.927-2.257-.612-.679-1.396-1.01-2.407-1.01h-5.359v6.567zM332.821 52.446h-14.328V27.541h3.895v21.14h10.433zM350.798 52.446h-14.869V27.541h14.869v3.766h-10.974v6.835h9.897v3.699h-9.897v6.835h10.974v3.77zM369.111 52.983c-1.824 0-3.627-.6-5.36-1.786-1.748-1.195-2.91-2.898-3.442-5.05l-.088-.335 3.577-1.447.113.445a6.106 6.106 0 001.942 3.145c.981.851 2.046 1.262 3.254 1.262 1.254 0 2.336-.33 3.212-.98.851-.63 1.266-1.464 1.266-2.555 0-1.224-.415-2.138-1.27-2.793-.91-.696-2.39-1.358-4.403-1.975-2.185-.688-3.87-1.598-5.011-2.705-1.179-1.14-1.774-2.612-1.774-4.378 0-1.832.734-3.451 2.18-4.801 1.439-1.346 3.334-2.03 5.624-2.03 2.126 0 3.883.545 5.233 1.619 1.338 1.07 2.218 2.26 2.625 3.543l.11.348-3.59 1.493-.118-.444c-.18-.675-.637-1.321-1.367-1.913-.717-.587-1.669-.884-2.826-.884-1.095 0-2.034.302-2.797.905-.747.588-1.111 1.292-1.111 2.156 0 .776.335 1.417 1.01 1.958.738.587 1.85 1.124 3.292 1.598 1.224.394 2.214.763 3.02 1.128.813.365 1.651.86 2.49 1.472a6.09 6.09 0 011.98 2.378c.44.935.658 2.03.658 3.25 0 1.228-.256 2.344-.763 3.317-.512.973-1.2 1.757-2.055 2.336a10.03 10.03 0 01-2.68 1.279 9.7 9.7 0 01-2.931.444zM389.977 52.983c-2.75 0-5.015-.927-6.738-2.75-1.716-1.82-2.58-4.224-2.58-7.142V27.54h3.896v15.684c0 1.799.474 3.27 1.405 4.37.927 1.094 2.24 1.622 4.022 1.622 1.752 0 3.103-.545 4.017-1.622.93-1.1 1.405-2.571 1.405-4.37V27.54h3.9v15.55c0 2.94-.843 5.346-2.517 7.154-1.673 1.816-3.962 2.738-6.81 2.738zM420.975 52.446h-4.282l-.117-.18-6.382-9.582h-2.823v9.762h-3.895V27.541h8.613c2.139 0 4.009.721 5.569 2.143 1.572 1.426 2.37 3.254 2.37 5.43 0 1.774-.588 3.364-1.745 4.722-1.049 1.23-2.344 2.055-3.862 2.462l6.55 9.49v.658h.004zm-13.6-13.46h4.584c1.14 0 2.097-.361 2.91-1.108.81-.734 1.2-1.64 1.2-2.763 0-.96-.353-1.82-1.074-2.626-.709-.792-1.64-1.182-2.83-1.182h-4.785v7.678h-.004z"/>
    </g>
  </g>
</svg>
