<?xml version="1.0" encoding="UTF-8"?>
<svg id="Calque_12" data-name="Calque 12" xmlns="http://www.w3.org/2000/svg" xmlns:xlink="http://www.w3.org/1999/xlink" viewBox="0 0 3000 3000">
  <defs>
    <style>
      .cls-1 {
        fill: #fff;
      }

      .cls-2 {
        letter-spacing: -.02em;
      }

      .cls-3 {
        fill: url(#Dégradé_sans_nom_11-2);
      }

      .cls-4 {
        fill: url(#Dégradé_sans_nom_11-6);
      }

      .cls-5 {
        fill: url(#Dégradé_sans_nom_11-5);
      }

      .cls-6 {
        font-family: Comfortaa-Bold, Comfortaa;
        font-size: 282.3px;
        font-variation-settings: 'wght' 700;
        font-weight: 700;
      }

      .cls-7 {
        fill: url(#Dégradé_sans_nom_11-4);
      }

      .cls-8 {
        fill: url(#Dégradé_sans_nom_11-7);
      }

      .cls-9 {
        fill: url(#Dégradé_sans_nom_11);
      }

      .cls-10 {
        fill: url(#Dégradé_sans_nom_11-3);
      }
    </style>
    <linearGradient id="Dégradé_sans_nom_11" data-name="Dégradé sans nom 11" x1="491.68" y1="1374.73" x2="1163.72" y2="1374.73" gradientUnits="userSpaceOnUse">
      <stop offset="0" stop-color="#5465ff"/>
      <stop offset=".21" stop-color="#714ef3"/>
      <stop offset=".56" stop-color="#9b2de1"/>
      <stop offset=".84" stop-color="#b618d6"/>
      <stop offset="1" stop-color="#c011d3"/>
    </linearGradient>
    <linearGradient id="Dégradé_sans_nom_11-2" data-name="Dégradé sans nom 11" x1="714.69" y1="1205.75" x2="791.08" y2="1205.75" xlink:href="#Dégradé_sans_nom_11"/>
    <linearGradient id="Dégradé_sans_nom_11-3" data-name="Dégradé sans nom 11" x1="700.7" y1="1319.1" x2="802.09" y2="1319.1" xlink:href="#Dégradé_sans_nom_11"/>
    <linearGradient id="Dégradé_sans_nom_11-4" data-name="Dégradé sans nom 11" x1="862.38" y1="1147.53" x2="1020.74" y2="1147.53" xlink:href="#Dégradé_sans_nom_11"/>
    <linearGradient id="Dégradé_sans_nom_11-5" data-name="Dégradé sans nom 11" x1="912.45" y1="1252.33" x2="988.47" y2="1252.33" xlink:href="#Dégradé_sans_nom_11"/>
    <linearGradient id="Dégradé_sans_nom_11-6" data-name="Dégradé sans nom 11" x1="829.63" y1="1328" x2="895.19" y2="1328" xlink:href="#Dégradé_sans_nom_11"/>
    <linearGradient id="Dégradé_sans_nom_11-7" data-name="Dégradé sans nom 11" x1="807.48" y1="1128.33" x2="869.72" y2="1128.33" xlink:href="#Dégradé_sans_nom_11"/>
  </defs>
  <path class="cls-9" d="m1163.72,1205.31c0-180.5-150.44-326.83-336.02-326.83s-336.02,146.33-336.02,326.83c0,31.35,4.55,61.67,13.03,90.38,12.07,44.78,33.6,96.53,60.01,150.28v.03c4.3-1.73,8.88-2.71,13.51-2.71,21.02,0,36.59,17.18,37.5,37.5.44,9.83-3.78,18.95-10.47,25.74,15.94,4.36,27,19.17,27.76,36.2.26,5.77-1.09,11.29-3.6,16.24,7.76,2.73,16.06,8.78,19.96,15.95,2.38,2.4,4.94,4.72,7.51,6.91.82.56,1.64,1.12,2.48,1.65,4.79,3.02,8.67,6.8,11.61,11.08.5-.02.99-.04,1.49-.04,21.02,0,36.59,17.18,37.5,37.5.64,14.29-8.53,27.08-20.88,33.37.03.05.06.1.09.15,65.75,104.92,125.35,188.2,136.08,203.07v2.37s.3-.41.86-1.17c.55.76.85,1.17.85,1.17v-2.34c13.46-18.38,103.9-142.86,187.57-283.17.02-.03.03-.05.05-.08-7.57-6.93-12.33-16.97-12.82-27.92-.91-20.25,17.88-37.5,37.5-37.5,2.3,0,4.52.21,6.67.61,1.73-9.23,7.44-17.36,15.06-22.86,2.45-4.58,5.88-8.65,9.97-11.94.11-.21.22-.42.33-.62,53.17-100,93.37-197.36,91.82-261.05.37-6.22.57-12.49.57-18.8Z"/>
  <path class="cls-1" d="m1071.33,1485.16c-17.83,33.53-37.11,67.36-56.77,100.31-29.9,17.04-55.93,27.94-74.51,35.59-28.17,11.6-109.39,42.59-217.39,44.82-12.06.25-23.19.11-33.46-.34-42.83-68.32-88.26-145.82-124.48-219.57,26.55-44.52,68.83-95.85,126.9-145.6,25.51,29.2,51.02,58.39,76.54,87.59-21.92,11.77-62.37,37.58-90.32,86.3-14.59,25.42-33.3,58.21-21.29,82.93,20.33,41.85,117.99,31.7,153.52,28.01,52.13-5.42,144.45-24.02,261.26-100.04Z"/>
  <rect class="cls-1" x="758.07" y="1028.52" width="202.33" height="390.57" rx="64.19" ry="64.19" transform="translate(1198.62 -232.49) rotate(48.19)"/>
  <path class="cls-3" d="m745.39,1229.1c-10.23,1.99-20.47,3.98-30.7,5.97l65.56-58.64,10.83,12.11c-15.23,13.52-30.46,27.04-45.69,40.56Z"/>
  <path class="cls-10" d="m797.06,1375.19l-96.36-107.74c9.09-1.48,18.19-2.95,27.28-4.43,24.7,27.62,49.41,55.24,74.11,82.86-1.68,9.77-3.36,19.54-5.03,29.31Z"/>
  <path class="cls-7" d="m948.9,1226.46c-28.84-31.08-57.68-62.17-86.52-93.25,15.81-21.54,31.63-43.07,47.44-64.61,15.86,6.65,44.13,20.94,69.97,49.69,24.56,27.31,35.78,55.28,40.94,71.44-23.95,12.24-47.89,24.49-71.84,36.73Z"/>
  <path class="cls-5" d="m912.45,1266.76l11.89,13.3c21.38-18.49,42.75-36.97,64.13-55.46-14.8,4.87-29.6,9.74-44.39,14.62-10.54,9.18-21.09,18.36-31.63,27.54Z"/>
  <path class="cls-4" d="m838.98,1333.53c-3.12,9.95-6.23,19.9-9.35,29.85l65.56-58.64-10.83-12.11c-15.13,13.63-30.26,27.27-45.38,40.9Z"/>
  <path class="cls-8" d="m819.37,1163.76l-11.89-13.3c20.75-19.19,41.5-38.38,62.24-57.57-6.49,14.16-12.97,28.33-19.46,42.49-10.3,9.46-20.59,18.91-30.89,28.37Z"/>
  <text class="cls-6" transform="translate(1206.7 1231.92)"><tspan x="0" y="0">TROUVE</tspan></text>
  <text class="cls-6" transform="translate(1156.34 1542.97)"><tspan x="0" y="0">MA</tspan></text>
  <text class="cls-6" transform="translate(1023.67 1866.12)"><tspan x="0" y="0">PL</tspan><tspan class="cls-2" x="357.1" y="0">A</tspan><tspan x="549.91" y="0">CE</tspan></text>
</svg>