<?xml version="1.0" encoding="utf-8"?>
<!-- Generator: Adobe Illustrator 27.0.1, SVG Export Plug-In . SVG Version: 6.00 Build 0)  -->
<svg version="1.1" id="Calque_1" xmlns="http://www.w3.org/2000/svg" xmlns:xlink="http://www.w3.org/1999/xlink" x="0px" y="0px"
	 viewBox="0 0 389.2 262" style="enable-background:new 0 0 389.2 262;" xml:space="preserve">
<style type="text/css">
	.st0{clip-path:url(#SVGID_00000003792487044503090280000003954418608368613275_);}
	.st1{fill:#EEEEEE;}
	.st2{fill:#FFFFFF;}
	.st3{fill:url(#SVGID_00000111877182102482312190000002130157657783912872_);fill-opacity:0.9;}
	.st4{fill:url(#SVGID_00000153691743869458400240000003324347595630777749_);fill-opacity:0.2;}
	.st5{fill:url(#SVGID_00000124132015532427694890000000537125459903731608_);fill-opacity:0.5;}
	.st6{fill:url(#SVGID_00000142869535842204180700000008507301020679696543_);fill-opacity:0.6;}
	.st7{fill:url(#SVGID_00000070118830237599046700000013625608228335026568_);}
	.st8{fill:url(#SVGID_00000078749852019722302910000015333948152038126720_);fill-opacity:0.9;}
	.st9{fill:url(#SVGID_00000021829442416737962240000007865080095652344509_);fill-opacity:0.2;}
	.st10{fill:url(#SVGID_00000003821463188598843760000001228215869504153022_);fill-opacity:0.5;}
	.st11{fill:url(#SVGID_00000100351342824910980610000003194292414364846520_);fill-opacity:0.6;}
	.st12{fill:url(#SVGID_00000049211035783854109250000005856880020864747909_);}
</style>
<g>
	<defs>
		<rect id="SVGID_1_" x="3.8" y="0.2" width="382.7" height="260.5"/>
	</defs>
	<clipPath id="SVGID_00000162336734893364569570000014801676822989578914_">
		<use xlink:href="#SVGID_1_"  style="overflow:visible;"/>
	</clipPath>
	<g style="clip-path:url(#SVGID_00000162336734893364569570000014801676822989578914_);">
		<path class="st1" d="M389.2-2h-393v262.8h393V-2z"/>
		<g>
			<path class="st2" d="M349.5,246.7c7.9,4.1,15.6,8.2,23.5,12.3c-0.3,0.6-0.6,1.1-1,1.7h1.9c0.2-0.3,0.3-0.6,0.5-0.9
				c0.6,0.3,1.2,0.6,1.8,0.9h3.6c-1.5-0.8-3-1.6-4.6-2.4c1.8-3.3,3.4-6.1,5.2-9.4c2.9,1.5,5.8,3.1,8.7,4.6v-1.8
				c-11.4-6.1-22.8-12.1-34.4-18.2c-4.4,7.5-8.1,15-12.1,22.4c-0.9,1.6-1.7,3.2-2.6,4.8h1.8C344.5,256.1,346.9,251.5,349.5,246.7z
				 M355.4,235.6c8,4.2,15.7,8.3,23.6,12.5c-1.8,3.2-3.4,6.2-5.2,9.5c-7.9-4.1-15.6-8.2-23.5-12.3
				C352,241.9,353.6,238.9,355.4,235.6z"/>
			<polygon class="st2" points="3,243 3,243 3,243 			"/>
			<path class="st2" d="M252,260.7c1.3-1.5,2.6-3.1,3.8-4.6l0,0c1.9,1.6,3.6,3,5.5,4.6h0.8c3.5-4.3,6.9-8.4,10.5-12.8
				c-2-1.8-3.8-3.4-5.8-5.1c1.6-2,3.2-3.8,4.9-6c3.1,2.3,6.1,4.5,9.4,7c-4.5,5.6-8.9,11.2-13.3,16.8h2.1c4.5-5.7,9-11.4,13.6-17.2
				c-7.7-5.7-14.9-11.1-22.5-16.8c-9.2,11.3-18.4,22.6-27.7,33.9h2.1c8.6-10.5,17.1-21,25.8-31.7h0c3.2,2.4,6,4.5,9.1,6.8
				c-1.6,2-3.1,3.9-4.8,6c-1.9-1.4-3.6-2.8-5.7-4.3c-3.6,4.2-7,8.3-10.6,12.6c1.8,1.7,3.5,3.2,5.3,5c-1.6,1.9-3.1,3.8-4.7,5.7H252z
				 M265.8,244.2c1.6,1.3,3,2.5,4.7,3.9c-3,3.6-5.8,7.1-8.9,10.8c-1.6-1.4-3-2.7-4.7-4.1C259.9,251.2,262.8,247.8,265.8,244.2z
				 M251.5,250c2.9-3.4,5.6-6.7,8.6-10.3c1.5,1.2,2.9,2.2,4.4,3.4c-2.9,3.5-5.7,6.9-8.7,10.5C254.3,252.5,253.1,251.4,251.5,250z"/>
			<path class="st2" d="M210.6,242.1c25.8-12.2,51.3-24.4,77.2-36.7c1,4.4,1.7,8.4,2.7,12.3c2.5,9.7,5.1,19.4,7.7,29.1
				c0.5,1.9,0.4,3.3-0.9,5c-2.5,3-4.9,6-7.4,9h2.1c2.5-3,4.9-6.1,7.4-9.2c0.9,3.1,1.7,6.2,2.6,9.2h5.1c-3.3-11.8-6.5-23.7-9.8-35.5
				c-0.6-2.1-0.4-3.7,1.1-5.5c12.2-14.6,24.3-29.3,36.4-43.9c0.6-0.7,1.3-1.4,2.4-2.6c2.2,16.5,4.2,32.3,6.3,48.8
				c-1.6-0.7-2.5-1.1-3.3-1.5c-6.9-3.8-13.8-7.7-20.7-11.5c-3.6-2-3-1.8-6.1,0.5c-4.1,3.2-8.2,6.5-12.4,9.6
				c-1.5,1.1-1.9,2.2-1.4,4.1c1.1,3.9,1.9,7.9,2.9,12.2h32.7c-0.4,1.1-0.6,1.9-1,2.6c-2.3,4.4-4.8,8.8-7.1,13.3
				c-0.8,1.5-1.8,2.2-3.3,2.6c-3.9,1-7.8,2.1-11.8,3.2c-0.7,0.2-1.4,0.6-2,1.2c2.5,1,4.7-0.5,7-0.9c2.4-0.5,4.7-1.2,7-1.8
				c0.2,0.2,0.3,0.4,0.5,0.6l-2.5,4.7h10.6c0.4-0.1,0.8-0.2,1.2-0.4c-1.6-1.8-3.2-0.6-4.6-0.7c-1.4-0.1-2.9,0.1-4.9,0.3
				c6.5-12.2,12.7-23.8,19.1-35.8c15.3,8,30.5,16.1,45.7,24v-1.8c-13.8-7.3-27.7-14.5-41.5-21.8c-1.1-0.6-2.1-1.2-3.4-1.9
				c2.3-1.5,26.7-7.5,31.6-7.9c2.2,8.8,4.4,17.8,6.8,27.4c2.2-1.8,4.3-3.6,6.4-5.4v-2.2c-0.3,0.2-0.5,0.4-0.8,0.6
				c-1.4,1.2-2.9,2.4-4.8,4c-2.1-8.6-4.1-16.6-6-24.6c1-0.6,5.9-2,11.5-3.4v-1.7c-16.7,4.1-41.1,9.7-43,9.5
				c6.2-11.6,12.3-23,18.6-34.7c8.2,4.3,16.3,8.6,24.4,12.8v-5.5c-1.3-0.7-2.7-1.4-4.1-2.2h0c1.4-1.7,2.7-3.2,4.1-4.9v-1.4
				c-2-1.6-3.9-3.1-6-4.7c2-2.5,4-5,6-7.5v-2.6c-0.7,0.9-1.4,1.7-2.1,2.6c-3.5-2.9-6.9-5.7-10.6-8.7c4.3-8,8.5-15.8,12.7-23.7V135
				c-7.9,14.8-15.7,29.3-23.6,44.1c-11.4-6-22.5-11.9-34-18.1c13.9-21.6,27.6-43,41.7-65c0.6,1.4,1.1,2.3,1.4,3.3
				c3.2,8.5,6.4,17,9.6,25.5c1.1,3,1.9,6.3,4.9,8.3v-2.1c-0.7-0.6-1.3-1.4-1.7-2.3c-2.4-6.3-4.7-12.5-7.2-19.2
				c2.4-2.1,4.9-4.2,7.9-6.8c0.3,2.2,0.7,4.3,1,6.4V80.9c-1.1-3.3-1.1-6.3,0-9.2v-9.3c-0.6,0.9-1.1,1.7-1.7,2.6
				c-0.1,0.2-0.5,0.3-1,0.7c-0.9-4.6-1.8-9.1-2.6-13.6c-1.2-6.1-2.2-12.2-3.5-18.2c-0.4-1.9-0.1-3.3,1.5-4.4
				c0.8-0.6,1.4-1.3,2.5-2.2v0c1.7,3.1,3.3,6,4.9,8.8v-3.4c-1.1-2.2-2.4-4.4-3.8-7c1-0.8,2.1-1.6,3-2.5c0.3-0.2,0.5-0.5,0.8-0.7
				v-2.2c-0.7,0.7-1.5,1.4-2.2,2.1c-0.8,0.7-1.6,1.4-2.6,2.4c-2-1.2-4-2.4-5.9-3.7c-0.5-0.4-0.9-1.2-1-1.9c-0.7-3.2-1.3-6.5-1.9-9.9
				c4.4-2.7,8.9-4.9,13.6-6.9V-2H217.6c1,0,2,0.1,3.1,0.1c2.8,13.3,5.6,26.4,8.4,39.8c-6.2,2.8-12.3,5.6-18.6,8.4
				c-0.5-1.3-0.9-2.2-1.2-3.2c-3.1-9.4-6.1-18.9-9.2-28.3c-0.7-2.3-1.1-4.4-0.7-6.9c0.5-3.2,0.7-6.4,1.1-10h-5.1
				c-0.1,1.8,0,3.4-0.3,4.9c-1.3,6-0.4,11.7,1.7,17.5c2.9,7.9,5.3,16,7.9,24c0.4,1.1,0.6,2.2,1,3.6c-3.5,1-6.7,2-9.6,2.9
				c-1.4-1.5-2.5-2.8-3.8-3.9c-6.4-5.8-12.8-11.6-19.2-17.4c-1-0.9-1.9-1.6-1.7-3.2c0.6-8.1,1.2-16.2,1.8-24.7
				c7.3-1.2,14.5-2.5,22.2-3.8h-29.4c-1.2,0.2-2.4,0.4-3.7,0.6c0-0.2,0-0.4,0-0.6h-1.7c0,0.3,0,0.6-0.1,0.9
				c-2.8,0.5-5.4,0.9-8.1,1.4c-2.2,0.4-4.5,0.6-6.6,1.2c-3.1,0.9-5.1-0.4-6.8-3.1c0.1-0.1,0.2-0.2,0.2-0.4h-8.4
				c0.5,0.5,1.1,1,1.6,1.4l0,0c-0.9,1.4-1.5,2.6-2.4,3.6c-0.5,0.6-1.3,1.2-2.1,1.3c-9.5,1.6-18.9,3.1-28.4,4.7c-0.1,0-0.2,0-0.6-0.1
				c-0.9-1.6-1.8-3.3-2.9-5.3c1.8-1.9,3.5-3.7,5.3-5.6h-6.8C80,13.1,64.9,27.9,50,43.1C38.5,32.4,27.2,21.9,16.2,11.6
				C20.7,7,25.2,2.5,29.8-2h-8.4c-0.8,0.8-1.5,1.5-2.3,2.3c-0.8-0.8-1.6-1.6-2.5-2.3h-2.4c1.3,1.3,2.7,2.5,4,3.8
				c-2.1,2-4,3.8-6.2,5.9C8.6,4.4,5.1,1.2,1.6-2h-5.5v1.5C-2.6,0.6-1.3,1.8-0.1,3C-1.3,4.3-2.6,5.6-3.8,7v2.4c1.7-1.7,3.3-3.4,5-5.1
				C3.7,6.5,6,8.7,8.8,11.2c-4.2,4.2-8.3,8.4-12.6,12.6v7.3c1.5-1.4,2.9-2.8,4.4-4.2c3.9,3.7,7.9,7.4,12.2,11.5
				c-2.2,2.6-4.2,4.9-6.4,7.5c-3.5-3-6.8-6-10.2-9v2.2c3.3,2.9,6.8,5.9,10.3,9c2.2-2.5,4.2-4.8,6.2-7.1c0.2,0.1,0.5,0.1,0.7,0.2
				C14.6,52.7,15.8,64,17,75.5c-1.4-0.2-10.9-4.2-20.9-8.7V72c3.8,1.7,7.6,3.5,11.4,5.2c0,0.2-0.1,0.4-0.1,0.7
				c-1,0.3-1.9,0.6-2.9,0.8c-2.8,0.6-5.6,1.3-8.4,1.9v4.9c4.5-1,9-2,13.5-3.1l0.2,0.6l0,0c-4.5,4.4-9.1,8.7-13.7,13.2v7.9
				C2.3,98,8.4,91.8,14.8,85.3c2.1,14,4.2,27.2,6.2,40.6h0c-6.1,2.3-11.8,4.5-17.9,6.9c-0.8-1.8-1.5-3.5-2.4-5.6
				c0.9-0.5,2-1.1,3.1-1.7c-1.5-2.4-3.4-3.4-5-4.7c-0.8-0.7-1.7-1.4-2.6-2.1v2.1c1.6,1.3,3.2,2.5,4.9,3.8c-0.8,0.9-1.4,1.6-2.1,2.5
				c1,2.5,2.1,5,3.3,7.8c6.5-2.4,12.6-4.7,19-7.2c2.1,14,4.2,27.6,6.3,41.5H10.9c-1.5,2.9-2.9,5.6-4.4,8.5c-2.9-1-5.6-1.9-8.2-3
				c-0.7-0.3-1.4-1.3-1.6-2.1c-0.2-0.5-0.3-0.9-0.5-1.4v5.5c0.1,0.2,0.1,0.3,0.2,0.5c1.6,5.2,3.3,10.3,5,15.8
				c-1.7,0.7-3.5,1.4-5.2,2.1v1.8c2-0.8,4-1.6,6-2.5c1.3,3.2,2.5,6.1,3.8,9.3c-3.3,1.5-6.6,3-9.9,4.5v5.3c3.8-1.8,7.7-3.5,11.6-5.4
				c1.9,3.9,3.2,7.9,5,11.9c-0.8,0.5-1.3,0.8-1.7,1c-4.9,2.4-9.9,4.7-14.9,7.2v1.8c2-0.9,4-1.9,6.1-2.9c4.2,9.1,8.4,17.9,12.6,27.1
				c-3.4,1.8-6.6,3.5-10.3,5.5c-2-4.2-3.8-8.3-5.6-12.7c1.5-1.2,3-2.3,4.5-3.4c-0.1-0.2-0.3-0.5-0.4-0.7c-1.8-0.1-2.8,1.6-4.4,2
				c-0.6-0.7-1.5-2.2-2.4-4.1v4.2c0.2,0.4,0.4,0.8,0.6,1.3c-0.2,0.1-0.4,0.2-0.6,0.4v2c0.4-0.3,0.8-0.5,1.3-0.8
				c1.9,4.3,3.7,8.3,5.6,12.7c-0.1,0-0.1,0.1-0.2,0.1h10.4c6.7-3.4,13.6-6.4,20.7-9.3c1.7,3.1,3.5,6.2,5.2,9.3h1.9
				c-1.8-3.3-3.7-6.6-5.6-10l0,0c5.7-2.6,11-4.9,16.5-7.4c2.5,5.8,4.9,11.5,7.3,17.4h5.3c-2.7-6.5-5.4-12.8-8.2-19.4
				c3.8-1.7,7.4-3.4,11.3-5.2c3.7,6,7.2,11.6,10.9,17.6c-3.3,2.3-6.6,4.6-10,7h2.9c2.6-1.8,5.2-3.7,8-5.6h0c1.2,1.9,2.3,3.8,3.5,5.6
				h2c-5.3-8.4-10.4-16.7-15.7-25.3c3.6-1.7,6.8-3.1,10-4.6c1.8,1.6,15.2,23.2,16.6,26.8c-1.5,1-2.9,2-4.5,3.1h2.9
				c0.9-0.6,1.8-1.3,2.8-1.9c0.4,0.7,0.8,1.3,1.2,1.9h1.9c-6.3-10.2-12.5-20.4-18.9-30.8c3.7-1.7,7-3.2,10.5-4.9
				c6.2,11.9,12.3,23.7,18.6,35.7h1.8c-6.3-12.2-12.6-24.1-18.9-36.4c6.3-3,12.4-5.8,18.7-8.7c5.8,12.3,11.5,24.3,17.4,36.8v0
				c-4.5,2.8-8.9,5.5-13.4,8.3h3.1c3.6-2.2,7.2-4.5,10.8-6.7c0.6,1.3,1.1,2.2,1.6,3.2c-0.9,1.2-1.7,2.3-2.6,3.5h7.4
				c-0.3-0.2-0.7-0.4-1-0.7c14.9-19.9,29.6-39.5,44.6-59.6h0c2.8,4.9,5.3,9.1,7.6,13.4c0.4,0.7,0.2,1.9-0.1,2.6
				c-1.2,2.6-2.5,5.2-3.8,7.8c-6,12.1-11.9,24.3-17.9,36.4h5.4c3.3-6.7,6.5-13.3,9.9-20.1c7.2,4.8,14.1,9.4,21.2,14.2
				c-0.2,2-0.4,3.9-0.6,5.9h1.7c0.6-5.5,1.1-11.1,1.7-16.7c4.4,5.7,8.6,11.2,12.9,16.7h6.3C219.5,254.7,214.4,249.1,210.6,242.1z
				 M303.8,233.6c-0.9-3.7-1.9-7.4-2.7-11.1c-0.1-0.6,0.3-1.5,0.8-1.9c4.4-3.5,8.9-7,13.3-10.5c0.9-0.7,1.7-0.8,2.6-0.2
				c2.2,1.3,4.5,2.5,7,3.9c-1.4,6.8-2.6,13.2-4,19.8H303.8z M322.6,233.5c0.6-3.1,1.1-6,1.7-9.1c2,1.3,4.1,4.2,6.7,9.1H322.6z
				 M337,232.5c-0.9,1.6-3.1,1.8-4.2,0.2c-2.5-3.6-4.9-7.2-7.2-10.9c-0.3-0.5-0.3-1.4-0.2-2.1c0.2-1.6,0.6-3.1,1-5.1v0
				c5.4,3,10.4,5.8,15.7,8.7C340.3,226.6,338.7,229.6,337,232.5z M387.6,183.9c-1.4,1.6-2.7,3.1-4.1,4.7v0c-2-1-3.8-2-5.9-3.1
				c1.6-2,2.9-3.7,4.5-5.7C383.9,181.1,385.6,182.4,387.6,183.9z M375.7,163.7c3.5,2.9,6.7,5.6,10.3,8.5c-3.3,4.2-6.6,8.2-10,12.5
				c-3-1.6-5.8-3.1-9-4.8C370,174.5,372.8,169.3,375.7,163.7z M363.3,183.4L363.3,183.4c-6.1,11.4-12,22.5-18,33.7
				c-0.2,0-0.5-0.1-0.7-0.1c-2.1-15.3-4-30.6-6-46.7C347.2,174.9,355.2,179.1,363.3,183.4z M60.1,101.8c0.2-0.2,0.3-0.4,0.5-0.5
				c7.7,3.5,15.4,6.9,23.2,10.4c-1.5,1.6-8.4,4.3-16,6.3C65.2,112.5,62.6,107.2,60.1,101.8z M66.2,118.7c-2.1,0.8-4,1.5-5.9,2.2
				c-0.6-0.8-1-1.4-1.4-2c-3.3-6-6.6-12-10-17.9c-0.9-1.6-1.3-3.1,0.2-4.8h0c2.3,1,4.6,2,6.9,3.1c0.6,0.3,1.3,0.9,1.6,1.5
				C60.6,106.6,63.3,112.5,66.2,118.7z M109.6,42.6c10.1,11.5,20,22.7,30.3,34.4c-6.1,2.5-11.8,4.7-18,7.2
				c0.3-8.4,0.6-16.3,0.9-24.7c-3.2,1.7-4.8,4.1-6.8,6c-2,1.9-3.9,3.9-5.9,5.9c-2,2-4,4-6.3,6.3c-3.3-4-6.5-7.8-9.8-11.7
				C99.3,58.2,104.3,50.6,109.6,42.6z M211.9,110.4c-5,2.3-9.8,4.5-14.6,6.7c-1.5-2.1-11.5-29.4-12-32.9c1.6-0.7,3.2-1.4,4.9-2.1
				c3-1.2,6.1-2.5,9.6-3.9l0,0C204,89.2,207.9,99.6,211.9,110.4z M201.4,77.7c4.1-1.7,8-3.3,12.3-5.1c3.5,10.7,6.9,21.2,10.4,32v0
				c-3.6,1.7-7,3.3-10.8,5.1C209.4,98.9,205.5,88.5,201.4,77.7z M195.2,117.8c-0.9,0.5-1.8,1-2.8,1.6c-0.7-0.6-1.4-1.1-2-1.7
				c-7.3-7.2-14.6-14.4-21.9-21.5c-0.5-0.4-0.9-0.9-1.3-1.4c-1.2-1.5-1-2.8,0.8-3.5c5-2.1,10-4.1,15.4-6.3v0
				C187.4,96.1,191.3,106.8,195.2,117.8z M165.6,107.1c0.2-0.1,0.4-0.1,0.6-0.2c5,5.7,10,11.4,15.4,17.4c-6.1,2.8-11.8,5.3-17.9,8.1
				C164.4,123.5,165,115.3,165.6,107.1z M181,121.1c-4.4-5-8.8-10.1-13.3-15.1c-1.4-1.5-2.2-3-1.7-5.1c0.3-1.2,0.2-2.5,0.3-3.7
				l0.7-0.3v0c7.5,7.8,15,15.7,22.7,23.7c-1.8,0.9-4,1.9-6.4,3C182.5,122.7,181.7,121.9,181,121.1z M166.8,90
				c0.8-10.5,1.5-20.4,2.2-30.5c1.7-0.2,3.3-0.3,5.2-0.5c2.9,8.1,5.8,16.1,8.8,24.4C177.6,85.6,172.5,87.7,166.8,90z M164.9,92.5
				c-3.2-3.1-5.8-5.7-8.3-8.4c-0.3-0.3-0.4-1-0.4-1.5c0.5-7.3,1.1-14.7,1.7-22.4c3-0.3,6-0.5,9.4-0.8
				C166.6,70.4,165.8,81.1,164.9,92.5z M156.4,86.5c2.7,2.7,5.3,5.2,7.8,7.7c0.3,0.3,0.5,1,0.5,1.4c-0.1,1.9-0.3,3.7-0.5,6.4
				c-3-3.5-5.7-6.4-8.1-9.4C155.2,91.7,155.5,90.4,156.4,86.5z M155.6,95c1.9,2,3.2,3.8,4.8,5.2c2.9,2.5,3.8,5.5,3.4,9.4
				c-0.8,7.7-1.2,15.5-1.8,23.5c-3.8,1.7-7.7,3.5-11.6,5.2c-0.6,0.3-1.8,0-2.2-0.4c-3.6-3.5-7.8-5.9-12.2-8.1
				c-1.7-0.9-2.9-2.7-4.9-4.7v0c7.3-2.3,13.8-4.4,20.7-6.5c0,5-0.5,9.7-0.7,14.3c0.3,0,0.6,0.1,0.9,0.1c0.2-0.5,0.6-0.9,0.7-1.4
				c0.3-2.5,0.4-5.1,0.6-7.7c0.6-8.9,1.3-17.8,1.9-26.7C155.3,96.6,155.4,96.1,155.6,95z M101.1,96.7c7.7,9.1,15.3,18.1,22.9,27
				c-0.2,0.2-0.3,0.4-0.5,0.6c-13-5.9-26-11.8-39.7-18C89.9,103,95.3,100,101.1,96.7z M129.9,82.8c1.1,3,2.1,5.8,3.2,9
				c-5.6,2.1-11,4-16.8,6.1c-1.4-2.7-2.1-5.5-2.9-8.5C119,87.1,124.3,85,129.9,82.8z M112.6,88c-2.5-2.9-4.9-5.8-7.5-8.9
				c5.5-5.2,10.7-10.2,16.1-15.3c-0.3,6.9-0.6,13.8-0.9,21C117.8,85.8,115.3,86.8,112.6,88z M144.7,118.9c-1-2.7-1.9-5.1-3-8
				c3.6-1.3,7.1-2.5,11-4c-0.2,3.4-0.4,6.3-0.6,9.6v0C149.6,117.4,147.3,118.1,144.7,118.9z M140.2,111.4c1,2.7,1.9,5.2,2.9,8
				c-4.1,1.3-7.8,2.5-11.6,3.6c-0.6,0.2-1.6-0.1-2-0.5c-1.6-1.7-3-3.5-4.8-5.6C130,115.1,134.9,113.3,140.2,111.4z M123.7,115.6
				c-2.4-1.9-3.7-4-3.9-7.2c5.6-2,11.1-4.1,17-6.2c1,2.6,1.9,5,2.9,7.7C134.2,111.8,128.9,113.7,123.7,115.6z M141.2,109.3
				c-1-2.7-1.8-5.1-2.8-7.8c5.1-1.9,9.8-3.6,15.2-5.6c-0.2,3.4-0.4,6.1-0.7,9.2C149.2,106.5,145.4,107.8,141.2,109.3z M137.8,99.7
				c-0.8-2.2-1.6-4.5-2.5-6.9c4.8-1.7,9.2-3.4,14-5.1c1.6,1.8,3.2,3.6,4.9,5.6v0C151.8,95,142.2,98.7,137.8,99.7z M134.7,91.2
				c-1.1-3.1-2.2-5.9-3.3-9c3.2-1.3,6.2-2.5,9.6-3.9c2.3,2.6,4.6,5.2,7.1,8.1C143.4,88,139.2,89.6,134.7,91.2z M133.7,93.3
				L133.7,93.3c0.9,2.6,1.7,4.7,2.6,7.2c-5.8,2.1-11.3,4.2-17.2,6.3c-0.9-2.6-1.6-4.8-2.5-7.4C122.4,97.4,128,95.4,133.7,93.3z
				 M95.9,117.2c13.1,5.8,26.1,11.6,39.2,17.5c3.3,1.5,6.5,3.2,9.1,6.4h0c-10.3,4.6-20.4,9.2-30.9,13.9c-6.6-12.7-13-25.3-19.7-38.3
				C94.6,116.9,95.3,117,95.9,117.2z M153.8,89.5c-0.5-0.3-1.1-0.5-1.4-0.9c-10.6-12-21.2-24-31.7-36c-0.2-0.3-0.4-0.7-0.6-1
				c0.2-0.1,0.3-0.3,0.5-0.4c1.1,1,2.2,2,3.2,3.1c9.2,9.1,18.3,18.2,27.6,27.1C153.9,83.8,154.9,86.1,153.8,89.5z M95,69.6
				c5.1,6.1,10.2,12.1,15.2,18.2c0.7,0.8,1.3,1.7,1.7,2.7c1.9,5.6,3.7,11.3,5.6,17c-0.2,0.2-0.4,0.4-0.6,0.6v0
				c-8.5-11.7-19.3-21-30.2-30.9c2.1-3.2,4.1-6.2,6.7-10C94.1,68.2,94.5,69,95,69.6z M99.6,95.6c-2.4,1.4-4.3,2.5-6.2,3.6
				c-3.3,1.8-6.5,3.7-9.8,5.5c-2.1,1.2-2.6,1-3.9-1c-0.6-0.9-1.1-1.8-1.5-2.8c-0.3-0.6-0.5-1.5-0.3-2.1c2.1-5.6,4.3-11.1,6.6-17.1
				C89.7,86.4,94.5,90.9,99.6,95.6z M78.9,80.7l0.6,0.4c-1.6,4.2-3.2,8.4-5.1,13.2c-1.8-3-3.2-5.5-4.8-8.2
				C72.7,83.9,75.8,82.4,78.9,80.7z M68.8,84.4C65,78,61.5,71.6,57.6,65c1.7-1.1,3.3-2.1,5.2-3.3c5.8,5.3,11.5,10.6,17.6,16.2
				C76.4,80.1,72.8,82.1,68.8,84.4z M70.7,118.9c4.7-1.7,9.5-3.4,14.2-5c2.6-0.9,5.4,0,6.6,2.3c6.7,13,13.4,26,20.2,39.4
				c-7.2,3.3-14.2,6.5-21.5,9.8l0,0c-7.2-15.2-14.3-30.3-21.5-45.5C69.4,119.6,70,119.2,70.7,118.9z M88.6,166.1
				c-8.5,4.1-16.9,8-25.7,11.9c-4.2-10.2-8.3-20-12.6-30.2c8.6-3,16.7-5.9,25.4-9C80.1,148,84.3,156.8,88.6,166.1z M90.7,170.7
				c1.1,2.2,2.1,4.3,3.3,6.7c-17.5,9.7-34.7,19.2-52.2,29l0,0c-1.6-3.8-3.1-7.3-4.8-11.2C54.9,187,72.6,178.9,90.7,170.7z
				 M92.2,169.8c9.5-4.3,18.7-8.5,28.1-12.8c1.3,1.5,0.7,2.8-0.2,3.8c-1.2,1.4-2.6,2.9-4.1,3.9c-3.2,2.1-6.6,4-9.9,5.9
				c-3.4,1.9-6.9,3.8-10.7,5.9C94.3,174.2,93.4,172.2,92.2,169.8z M109.9,170.6c1.9-1.1,3.4-1.9,4.8-2.8c1.6-1.1,3.2-2.2,4.6-3.4
				c2.6-2.1,3.9-4.7,3.3-8.3c8.4-3.8,16.6-7.5,25.2-11.3c0.8,0.9,1.6,1.8,2.2,2.7c2.3,3.6,4.7,7.1,6.8,10.8c4.5,8,8.9,16,13.3,24
				c-1.8,1.6-40.9,20.2-46.2,22C119.3,193.2,114.6,182,109.9,170.6L109.9,170.6z M152.6,143c0.8-0.5,1.4-1,2.1-1.3
				c23.3-10.7,46.6-21.3,70-32c1.4-0.6,2.4-0.8,3.8,0c10.7,6.2,21.5,12.3,32.3,18.5c0.8,0.5,1.6,1,2.6,1.7c-1.4,1.6-2.6,3.1-3.8,4.5
				c-3.6,4.1-7.1,8.3-10.7,12.3c-0.9,1-2,2-3.2,2.5c-23.2,10.4-46.5,20.7-69.7,31c-0.3,0.1-0.6,0.2-1.2,0.4l0,0
				C167.3,168.1,161.3,154.9,152.6,143z M249.8,48.2c1.2,3.1,2.3,5.9,3.5,9.1v0c-2.6,0.9-4.7,1.6-7.1,2.4c-1.1-2.9-2.3-5.7-3.5-8.9
				C245,49.9,247.2,49.1,249.8,48.2z M242.1,49.1c-0.6-1.7-1.2-3-1.8-4.6c2.4-0.9,4.6-1.7,7-2.7c0.7,1.8,1.2,3.1,1.8,4.7
				C246.8,47.4,244.6,48.2,242.1,49.1z M252,48.9c-2.1-5.5-4.2-10.9-6.4-16.4c3.3-2.1,6.7-3.3,10.6-3.9
				c5.4,15.8,10.8,31.5,16.3,47.7l0,0c-2.6,1.9-5,3.6-7.8,5.6c-2.6-5.5-4.4-11-6.5-16.4C256,59.9,254.1,54.4,252,48.9z M351,55.4
				c-3.4,3.1-6.6,6-10.3,9.3c-5-7.5-9.9-14.7-15-22.3c3.7-2.7,7.1-5.2,10.9-7.9C341.5,41.5,346.1,48.3,351,55.4z M338.1,33.6
				c1.8-1.2,3.3-2.3,5.1-3.6c4.8,6.4,9.5,12.7,14.5,19.3c-1.8,1.6-3.4,3.2-5.4,5C347.4,47.3,342.8,40.5,338.1,33.6z M334.9,112.8
				c-5.9-8.8-11.6-17.4-17.5-26.2c4-3.3,7.8-6.5,11.9-9.9c2.7,4.4,5.2,8.6,7.8,13c4.4-2.1,8.5-4.2,12.9-6.3
				c3.5,5.8,6.8,11.3,10.3,17.1C351.8,104.6,343.6,108.6,334.9,112.8z M225.1,163.7c5.6-2.5,11-4.9,16.4-7.3
				c0.2,0.2,0.4,0.4,0.6,0.5c-3.4,6.4-6.8,12.8-10.5,19.9C229.2,172.2,227.2,168.1,225.1,163.7z M229.7,180.1
				c-2.8,3.8-5.6,7.4-8.9,11.7c-3.2-7.7-6.1-14.8-9.1-22.2c4-1.8,7.8-3.4,11.8-5.2c2.3,4.6,4.5,9,6.5,13.4
				C230.4,178.4,230.2,179.5,229.7,180.1z M238.3,167.7c2.1,4.3,3.8,8.1,5.6,11.8c0.3-0.1,0.5-0.1,0.8-0.2c0-0.6,0.2-1.3,0-1.8
				c-1.5-3.3-3-6.6-4.5-9.9c-0.6-1.3-0.7-2.3,0.1-3.6c1-1.6,1.8-3.3,2.9-5.3h0c2.9,4.8,4.3,9.8,7.1,14.4c1.2-1,0.7-1.8,0.4-2.5
				c-1.8-4-3.6-8-5.4-12c-1.2-2.6-1-3.4,1.6-4.5c9.8-4.4,19.7-8.8,29.5-13.2c0.3-0.1,0.6-0.1,0.9-0.2c1,2,5.1,27.4,5.7,35.3
				c-0.7,0.3-1.4,0.7-2.2,0.9c-8.2,2.7-16.4,5.4-24.7,7.9c-1.2,0.4-2.5,0.6-3.7,0.4c-6.8-1.5-13.5-3.1-20.7-4.8
				C233.7,176.3,235.8,172.3,238.3,167.7z M252.4,146.2c0.9-2.4,8.3-11.2,12.8-15.5c3,1.7,6.1,3.4,9.8,5.4v0
				C267.2,139.6,259.9,142.9,252.4,146.2z M271.5,128.6c-0.8-0.4-1.6-1-2.7-1.7c15.9-13.2,31.5-26.1,47.4-39.3
				c5.8,8.7,11.4,17.1,17.1,25.6c-0.9,0.6-1.6,1-2.3,1.4c-14.2,6.9-28.5,13.7-42.6,20.6c-1.8,0.9-3.3,0.9-5-0.2
				C279.4,132.9,275.4,130.8,271.5,128.6z M288.9,108.1c-5.8-8.4-11.5-16.6-17.4-25.2c3.1-2.3,5.9-4.3,9-6.6
				c5.5,8.4,10.9,16.6,16.4,25C294.5,103.7,291.7,105.6,288.9,108.1z M337.9,87.6c-1-1.6-1.9-3.1-3.1-5c3.6-2.2,7.3-4,11.1-6h0
				c1.1,1.8,2.1,3.4,3.2,5.3C345.4,83.8,341.8,85.6,337.9,87.6z M334,81.1c-1.1-1.8-2.1-3.4-3.3-5.4c1.6-1.4,3.2-2.8,4.8-4.1
				c1.5-1.3,3.1-2.6,4.9-4.2c1.6,2.6,3,5,4.7,7.7C341.2,77.3,337.7,79.1,334,81.1z M339.6,66c-13.6,11.7-27.3,22.7-41.2,34.4
				c-5.5-8.4-10.9-16.6-16.4-25.1c14.2-10.6,28.3-21.2,42.5-31.9C329.5,51,334.4,58.3,339.6,66z M273.8,75.2
				c-3.4-9.8-6.6-19.2-9.9-28.9c3.9-1.1,7.5-2,11.2-3.1h0c2.7,8.5,5.3,16.6,8,25C280.2,70.5,277.2,72.7,273.8,75.2z M263.4,44.8
				c-1.9-5.6-3.8-11-5.8-16.9c4.1-1.2,7.7-2.2,11.6-3.3c1.9,5.8,3.6,11.2,5.4,17.1C270.9,42.7,267.3,43.7,263.4,44.8z M270.2,83.9
				c5.8,8.4,11.5,16.7,17.4,25.2c-4.8,4-9.4,7.8-14.5,12c-5.9-9.1-11.6-18.1-17.5-27.3v0C260.7,90.5,265.3,87.3,270.2,83.9z
				 M271.7,121.8c-0.2,0.4-0.3,0.8-0.6,1c-3.8,3.5-3.8,3.5-8.4,1c-9-5.1-18-10.2-27.1-15.3c-1.1-0.6-2.1-1.3-3.4-2.2v0
				c7.5-3.9,14.6-7.6,22.1-11.4C260.1,103.8,265.9,112.9,271.7,121.8z M210.2,170.2c3.1,7.6,6.2,15,9.3,22.8
				c-6.8,4.1-13.4,8-20.3,12.2c-1.5-3.4-3-6.6-4.5-10c2.5-1.2,4.8-2.2,7.4-3.4c-1.8-5.4-3.5-10.4-5.4-15.7
				C201.2,174.1,205.5,172.3,210.2,170.2z M206.8,202.6c2.3,4.1,4.4,7.9,6.8,12c-5.1,2.6-10,5-15.2,7.7c-2.4-3.5-4.2-7-6.4-10.8
				C196.9,208.5,201.6,205.7,206.8,202.6z M208.2,201.8c3.7-2.2,7.1-4.2,10.4-6.3c1.6-1,3-2.3,4.3-3.8c2.5-2.9,4.8-6,7.3-9.2
				c7.8,11.4,15.4,22.5,23.2,33.9c-9.8,4.7-19.3,9.2-29.1,13.8C218.9,220.7,213.6,211.3,208.2,201.8z M287,200.4
				c-10.7,5.1-21.2,10.1-32.1,15.2c-7.5-10.9-14.9-21.7-22.3-32.6c0.1-0.2,0.3-0.3,0.4-0.5c5,1.2,10,2.1,14.9,3.5
				c3.9,1.1,7.4,0.9,11.2-0.4c6.8-2.4,13.8-4.5,20.7-6.8c1-0.3,2-0.6,3.5-1C284.5,185.5,285.7,192.8,287,200.4L287,200.4z
				 M334.7,168.3c-13.1,15.9-26.1,31.6-39,47.2l-0.9-0.3c-5-24.6-8.5-49.4-12.3-75C300.2,149.7,317.3,158.9,334.7,168.3z
				 M335.2,146.3c-2.4,4.1-5.1,8.1-7.9,12.5h0c-13.3-7.2-26.2-14.1-39.8-21.4c13.4-6.4,26.1-12.6,39.1-18.9c0.4,0.8,0.8,1.4,1,2
				c2.6,7.6,5.1,15.2,7.6,22.8C335.5,144.3,335.7,145.6,335.2,146.3z M337.6,142.8c-0.3,0-0.5,0-0.8,0v0c-2.8-8.3-5.5-16.5-8.4-25.1
				c1.9-0.9,3.7-1.8,5.7-2.7c1,2.6,2,4.8,2.8,7.1c0.6,1.6,1.5,2.7,3.3,3c2.3,0.5,4.5,1.2,7.3,2C344.2,132.5,340.9,137.7,337.6,142.8
				z M348.6,125.7L348.6,125.7c-2.9-0.8-5.5-1.5-8.1-2.3c-0.7-0.2-1.4-1-1.7-1.6c-1.1-2.3-2-4.7-3.1-7.5c9.5-4.6,18.8-9.1,28.1-13.6
				c0.2,0.2,0.3,0.4,0.5,0.5C359.1,109.3,353.9,117.4,348.6,125.7z M365.6,98c-1.1,0.6-2.3,1.1-3.8,1.7
				c-6.7-11.2-13.3-22.2-20.2-33.5c3.3-3,6.5-5.9,10-9.1l0,0c0.5,1,0.9,1.5,1.1,2.1c4.9,11,9.8,22,14.7,33.1
				C368.7,95,368.2,96.6,365.6,98z M369.5,92.6c-5.7-12.3-10.9-24.5-16.4-36.8c4.4-4,8.6-7.8,12.9-11.8c2.4,2.3,3.8,4.5,3.9,8
				c0.4,11.7,1.1,23.4,1.8,35.1C371.9,89.2,371.3,90.8,369.5,92.6z M387.6,99.9c0.1,0.5-0.3,1.3-0.7,1.6c-2.3,2.1-4.6,4-7.3,6.3l0,0
				c-1.6-4.2-2.9-7.8-4.4-11.8c3.3-2.3,6.6-4.7,10.5-7.1C386.4,92.9,387,96.4,387.6,99.9z M384.1,80.4L384.1,80.4
				c1.5,8.1,2.4,5.8-3.8,10.2c-1.3,0.9-2.6,1.8-4,2.7c-0.2,0.1-0.4,0.1-0.6,0.2C376.3,91.1,381.7,82.6,384.1,80.4z M383.1,26
				L383.1,26c-1.2,1.1-2.1,2-3.5,3.3c-0.4-2.3-0.7-3.9-1.2-6.3C380.3,24.2,381.5,25,383.1,26z M375.8,35.2
				c1.7,9.2,3.3,17.4,4.9,25.7c0.6,3,1.2,6.1,1.7,9.1c0.2,1,0.4,2.3-0.1,3.1c-2.6,4.4-5.4,8.6-8.2,12.9c-0.2-0.1-0.5-0.1-0.7-0.2
				c-0.2-3-0.4-6-0.6-9c-0.5-9.1-0.9-18.1-1.4-27.2c-0.1-1.1-0.6-2.2-1.2-3.2c-0.7-1.2-1.7-2.2-2.9-3.6
				C369.9,40.4,372.6,38.1,375.8,35.2z M377.6,1.7c0,0.2,0,0.5,0.1,0.7h0c-0.9,0.5-1.8,0.9-3,1.6c-0.2-0.9-0.4-1.5-0.5-2.2H377.6z
				 M371.3,13.2c1.2,6.1,2.4,12.1,3.6,18.2c0.2,1.1,0.3,2-0.7,2.9c-5.1,4.5-10.1,9.1-15.4,14v0c-4.8-6.4-9.5-12.6-14.4-19.2
				c8.6-6,17.1-11.8,26.1-17.1C370.9,12.5,371.3,12.8,371.3,13.2z M369.9,6.3c-11.4,7.6-22.6,14.9-34.1,22.6
				c-2.8-9.4-5.6-18.6-8.6-28.5c14.2,0.3,27.8,0.6,41.6,0.9C369.3,3.2,369.6,4.8,369.9,6.3z M262.8-1.1c21.2,0.5,41.8,0.9,62.7,1.4
				c3,10,6,19.7,9,29.7c-16.5,12.3-33,24.6-49.9,37.2C277.2,44.3,270.1,21.9,262.8-1.1L262.8-1.1z M222.3-2
				c13.1,0.3,25.8,0.6,38.7,0.9h0c2.6,8,5.1,15.9,7.6,23.8c-0.6,0.3-1,0.6-1.4,0.7c-12.6,3.2-24.7,7.9-36.6,14
				C227.8,24,225.1,11.2,222.3-2z M243.9,33c1,2.4,1.9,4.7,2.9,7.2c-2.8,1.2-5.5,2.2-8.4,3.4c2,6.2,4.4,12,6.8,18.1
				c3-1,5.8-1.9,8.8-2.8c3.1,8.1,6.1,16,9.2,24c-10.6,8.2-22.3,13.9-34.4,19.6c-1.3-3.8-2.4-7.4-3.7-11.3l0,0c7-3,13.8-5.5,20.5-8.4
				c-0.9-1.6-1.7-1-2.4-0.7c-5.1,2.1-10.3,4.2-15.4,6.2c-0.9,0.4-1.8,0.7-3,1.1c-1.4-3.3-2.3-6.6-3.4-10.3
				c6.2-2.7,12.8-4.4,19.3-7.2c-1.5-1.4-2.5-0.7-3.4-0.4c-4.3,1.5-8.6,3.1-13,4.6c-1.1,0.4-2.2,0.7-3.6,1.2
				c-3.2-9.8-6.3-19.4-9.5-29.4C221.9,42.9,232.7,38,243.9,33z M206.3,49.6c2.4,7.4,4.6,14.2,7,21.5c-4.1,1.7-8.1,3.3-12.4,5.1
				c-2.8-7.5-5.5-14.7-8.4-22.4C197.1,52.3,201.5,51,206.3,49.6z M199.3,76.7c-4.9,2-9.7,4-14.9,6.1c-2.9-8.1-5.7-15.9-8.7-24.1
				c5.1-1.5,10-3,15.1-4.5C193.7,61.7,196.4,69,199.3,76.7z M171.4,34.6L171.4,34.6c6.4,5.8,12.7,11.5,19.1,17.3
				c-3.4,2.2-16.7,5.7-21.2,5.6c-0.1-7.5,0.9-15,1.4-22.5C171,34.9,171.2,34.8,171.4,34.6z M161.8,3.6c3.1-0.5,6.1-1,9.6-1.6
				c-0.6,8.1-1.1,15.9-1.7,23.7c-0.3,0.1-0.5,0.1-0.8,0.2l0,0c-2.4-2.1-4.8-4.2-7-6.4c-0.5-0.5-1-1.5-1-2.2
				C161.2,12.8,161.5,8.4,161.8,3.6z M168.6,32.2c0.4,0.4,0.5,1.2,0.5,1.8c-0.5,7.8-1.1,15.7-1.6,23.9c-3.1,0.2-6.1,0.4-9.5,0.7
				c0.8-11.3,1.6-22.2,2.4-33.9C163.5,27.5,166.1,29.8,168.6,32.2z M160.1,3.9L160.1,3.9c-0.3,4.5-0.6,8.4-1,13.1
				c-4.2-3.8-7.8-7.1-12.1-10.9C151.8,5.3,155.6,4.6,160.1,3.9z M131.9,9.2c0.5-0.6,1.7-0.7,2.6-1c4.5-1.7,8-0.5,11.3,3.1
				c3.1,3.5,6.8,6.5,10.4,9.5c2,1.7,2.7,3.5,2.4,6.1c-0.8,9.9-1.4,19.8-2.1,29.7c-0.5,7.3-1.1,14.7-1.6,22c-0.1,1-0.1,1.9-0.2,2.9
				c-0.2,0.1-0.4,0.3-0.6,0.4l0,0c-8.8-8.7-17.6-17.3-26.6-26.1c4.4-9.4,8.8-18.8,13.3-28.4c-4.5-3.4-9.4-6.3-14.3-9.8
				C128.3,14.6,130,11.8,131.9,9.2z M138.7,27.6c-4.1,8.9-8.2,17.5-12.5,26.7c-2.8-2.4-5.1-4.9-7.5-7.2c-2.3-2.3-4.6-4.7-7.3-7.4
				c4.6-6.9,9.2-13.8,13.9-20.9C129.9,21.8,134.2,24.7,138.7,27.6z M100.6,13.9c7.8-1.3,16-2.7,24.3-4.1c0.1,0.2,0.3,0.4,0.4,0.5
				c-5.7,8.5-11.4,17.1-17.3,26c-3.7-3.9-7.1-7.5-10.5-11.1C98.4,21.9,99.4,18.2,100.6,13.9z M94.9,4.9c0.8,1.5,1.5,2.9,2.4,4.5
				c-2.7,0.5-5,0.8-7.8,1.3C91.1,8.2,92.9,6.7,94.9,4.9z M73.8,26c1.9-2,4-3.8,5.8-5.9c2.2-2.6,4.9-3.8,8.2-4.1
				c3.3-0.3,6.5-1,9.7-1.5c1.5,4.7-1.8,11.5-7,15c-6,4-14.3,3.9-19.6-0.5C72,27.9,72.9,26.9,73.8,26z M70.1,30.9
				C79,36,87.8,35.2,95.9,27c3.5,4,6.9,7.8,10.4,11.8C98.6,50.4,91,61.9,83.1,73.7c-9.9-9.2-19.6-18.1-29.3-27
				C59.3,41.4,64.5,36.3,70.1,30.9z M50.7,50.5c3.3,2.8,6.9,6.4,10.8,10c-2.1,1.4-3.8,2.6-5.8,4c0.5,1.1,1,2.1,1.5,3.1
				C62.1,76,66.8,84.6,71.9,93c1.7,2.8,1.6,5.1-0.4,7.8c-16.3-7.4-32.7-14.8-49.6-22.5C31.7,68.9,41,59.9,50.7,50.5z M12.1,35.5
				L12.1,35.5c-3.5-3.3-7-6.6-10.2-9.6C5,22.8,7.8,20,10.8,17c0.6,6,1.3,12,1.9,18.1C12.5,35.2,12.3,35.4,12.1,35.5z M18.5,73.7
				L18.5,73.7c-2.1-19.4-4.1-38.8-6.2-58.2c0.2-0.1,0.3-0.2,0.5-0.4C24,25.4,35.1,35.9,46.5,46.6C37.3,55.8,28.3,64.9,19.2,74
				C19,73.9,18.7,73.8,18.5,73.7z M24.4,116.3c-0.9-5.6-1.7-11.2-2.6-16.7c-0.8-5.4-1.6-10.9-2.6-17c6.5,2.9,12.5,5.7,18.7,8.5
				c-0.4,3.1-1.7,5.8-2.7,8.5c-0.3,0.7-1.2,1.2-1.9,1.6c-2.5,1.6-5.1,3.1-7.6,4.7c-0.8,0.5-1.4,1.1-1.9,2.2c0.5,0,1.2,0.1,1.6-0.1
				c3.3-2,6.6-3.9,9.8-6c0.9-0.6,1.5-1.7,2-2.7c0.9-2.2,1.6-4.6,2.6-7.3c2.7,1.2,4.9,2.2,6.9,3.1c0.1,0.4,0.3,0.7,0.3,0.8
				c-1,2.4-0.4,4.4,0.9,6.6c3.1,5.2,6,10.6,8.9,15.9c0.5,0.9,1,1.9,1.6,3.1c-10.4,3.7-20.7,7.4-31.3,11.1
				C25.8,127.2,25.3,121.7,24.4,116.3z M27.2,134.4c13.4-4.8,26.3-9.4,39.7-14.1c2.8,5.5,5.3,11.1,8.1,17c-9,3.2-17.7,6.3-26.8,9.6
				c4.4,10.7,8.7,21.1,13.2,31.9c-8.5,3.8-16.8,7.6-25.7,11.6C32.8,171.5,30,153.1,27.2,134.4z M11.6,171.2h16.3
				c0.7,4.8,1.5,9.6,2.3,15.1c-7.6-2.7-14.6-5.3-22.1-7.9h0C9.4,175.6,10.5,173.5,11.6,171.2z M7.6,203c-3.7-8.7-7.3-17.1-9.5-26.4
				c1.3,0.4,2.2,0.6,3,0.9c8.7,3.1,17.5,6.3,26.2,9.5c2.4,0.9,3.6,2.7,3.6,5.6h0C23.1,196,15.4,199.5,7.6,203z M9.4,207.5
				c7.7-3.5,15.3-6.9,23.1-10.4c1.7,3.9,3.2,7.6,4.9,11.5c-7.8,3.7-15.2,7.3-23,11v0C12.7,215.5,11.1,211.7,9.4,207.5z M25.8,249.5
				c-3,1.5-6,2.7-9.4,4.1c-4.2-9-8.3-17.9-12.6-27.1c11.4-5.5,22.7-10.9,34.6-16.6l0,0c-0.2,1.4-0.1,2.2-0.3,2.9
				c-3.4,11.4-6.8,22.9-10.3,34.3C27.3,248.1,26.6,249.1,25.8,249.5z M29.9,247.9c-0.2-0.2-0.4-0.3-0.6-0.5
				c3.3-10.9,6.6-21.9,9.9-32.8l0.7-0.1c3.4,8,6.8,16.1,10.3,24.4h0C43.2,242,36.5,244.9,29.9,247.9z M54.6,236.9
				c-4.1-9.7-8.1-19.1-12.2-28.9h0c5.9-3.3,11.5-6.4,17-9.4c1.5,1.8,10.6,24.3,12.2,30.6C66.1,231.6,60.6,234.1,54.6,236.9z
				 M73.4,228.2c-4-10.4-7.9-20.5-11.9-30.8c7.2-4,14.1-7.8,21.5-11.9c4.8,10.5,9.6,20.9,14.5,31.6
				C89.4,220.9,81.5,224.5,73.4,228.2z M98.9,216.4c-4.9-10.6-9.6-21-14.5-31.8h0c3.6-2,6.7-3.7,10.3-5.7
				c5.1,10.8,10.1,21.3,15.3,32.3C106.3,212.9,102.8,214.6,98.9,216.4z M111.5,210.5c-5.1-10.8-10.1-21.3-15.3-32.3
				c3.9-2.4,7.9-4.5,12.2-6.8c4.7,11.4,9.4,22.6,14.1,33.9C118.7,207.1,115.2,208.7,111.5,210.5z M132.7,255.6
				c-6.5-13.7-12.8-27-19.2-40.6c19.7-9.3,39.2-18.5,59.2-27.8c1.7,3.1,3.3,5.9,4.8,8.7C162.6,215.7,147.9,235.4,132.7,255.6z
				 M177.1,185.1c6.1-2.8,11.9-5.5,18.1-8.3c1.8,4.7,3.3,9.2,4.9,14.2c-2,0.9-3.9,1.7-5.7,2.5c-1.7-1.2-1.2-3.6-3.8-4.5
				c0.3,1.2,0.5,1.9,0.7,2.7c0.3,0.8,0.6,1.6,1,2.7c-2.7,1.2-5.3,2.3-8.2,3.5C181.8,193.5,179.6,189.5,177.1,185.1z M185.2,199.6
				c2.3-1.8,5.1-2.4,8-3.8v0c1.6,3.6,3,6.9,4.6,10.3c-2.2,1.3-4.2,2.5-6.6,4C189.1,206.5,187.2,203.1,185.2,199.6z M202.7,253
				c-7.1-4.7-13.7-9.2-20.7-13.8c3-6.2,6-12.2,9.2-18.7c0.6,0.7,1.1,1.1,1.4,1.6c3.5,5.8,7,11.5,10.3,17.3c0.6,1,0.9,2.4,0.8,3.6
				C203.5,246.1,203,249.2,202.7,253z M199.1,223.8c5.1-2.6,10-5,15.3-7.7c2.8,4.9,5.5,9.7,8.4,14.9c-5.2,2.5-9.9,4.7-15,7.1
				C204.8,233.4,202.1,228.8,199.1,223.8z"/>
		</g>
		<path class="st2" d="M315.4,29.1c1.8-0.5,3.2-1,4.6-1.4c0.9,1.6,1.9,6.9,1.5,8.4c-0.1,0.5-0.4,1-0.8,1.3
			c-4.5,3.7-9.1,7.4-13.7,11.1c-0.1,0.1-0.4,0.1-0.8,0.2c-1.4-2-0.2-4.6-1.6-6.9c-0.8,0.1-1.9,0.2-3,0.4c-0.2,1.5-0.3,2.7-0.5,3.8
			c-0.3,0.2-0.4,0.5-0.6,0.5c-2.7,0-5.1,0.8-7.5,2.2c-2.9,1.7-6,1.8-9.2,0.5c-1.1-0.4-1.8-0.9-2.1-2.2c-1.6-7.1-3.3-14.1-5-21.2
			c-0.1-0.3,0.1-0.6,0.2-1.2h6.4c0.7,1.4,1.4,2.9,2.2,4.5c0.4-0.1,0.7-0.1,0.9-0.3c2.4-3,5.7-3.9,9.3-4.2c0.6,0,1.6-0.3,1.9,0
			c1.5,1.5,3,0.5,4.4,0.2c2.7-0.6,5.4-1.4,8.1-2.1c3.7-0.9,4.9,0,5,3.8C315.2,27.2,315.3,27.9,315.4,29.1L315.4,29.1z M278.7,26.5
			c1.5,6.1,2.9,12,4.3,17.9c0.7,3.1,3.2,4.6,6.3,3.9c1.1-0.3,2.3-0.7,3.3-1.1c2.3-0.9,4.6-2,7.1-3c0.1-0.9,0.3-2.1,0.5-3.6
			c2.2,0.2,4.2-1,6.4-0.2c0.2,1.8,0.5,3.6,0.8,5.9c4.3-3.5,8.2-6.7,12-9.9c0.3-0.2,0.5-0.7,0.5-1.1c-0.1-1.8-0.3-3.5-0.5-5.5
			c-2,0.6-3.6,1-5.5,1.6c-0.1-1.9-0.1-3.5-0.2-5.1c-0.1-2.3-0.5-2.6-2.8-2c-3.8,0.9-7.6,2-11.5,2.9c-0.7,0.2-1.5,0.3-2.1,0.1
			c-2.9-1.1-5.5-0.7-7.7,1.2c-1.3,1.2-2.7,2.3-4.3,3.8c-0.6-1.4-1.1-2.4-1.6-3.5C282.7,26.8,281.1,26.1,278.7,26.5L278.7,26.5z"/>
		<path class="st2" d="M285.7,10.9c1.8-0.5,3.3-0.8,4.8-1.2c0.9-2.9-0.9-5.8,0.4-9c0.5,0.6,1,1,1,1.3c0.5,5.7,0.9,11.5,1.3,17.2
			c0,0.5-0.3,1.1-0.8,1.6c-1.4-2.9-0.6-6.2-1.8-9.4c-1.5,0.4-3.1,0.8-4.7,1.2c0.2,3.7,0.4,7.2,0.7,11.3c-2.2-1.8-1.7-3.7-1.9-5.3
			c-0.3-1.7-0.3-3.4-0.4-5.3c-2,0.2-3.6,0.4-5.3,0.6c1-2.2,3.2-1.7,4.7-2.8c0.7-3.2-0.7-6.7,0.1-10.1c1.8,1.2,1.1,3,1.4,4.5
			C285.3,7.2,285.4,8.9,285.7,10.9L285.7,10.9z"/>
		<path class="st2" d="M297.8,6.2c-0.7-1.4-1.2-2.6-1.8-3.8c1.3-0.9,1.7,0,2.1,0.7c0.8,1.8,2,2.7,4.1,2.8c2.6,0.2,4.5,2.6,4.8,5.2
			c0.3,2.8-1.2,5.4-3.8,6.4c-2.4,1-5.3,0.3-7-1.7c-1.8-2.1-2-5.1-0.4-7.4C296.3,7.7,297,7.1,297.8,6.2z M300.9,7.4
			c-2.5,0-4.5,1.9-4.5,4.4c-0.1,2.5,1.8,4.5,4.3,4.6c2.5,0.1,4.8-2,4.7-4.6C305.4,9.4,303.4,7.4,300.9,7.4z"/>
		
			<linearGradient id="SVGID_00000082363874048328222640000013295962746422353319_" gradientUnits="userSpaceOnUse" x1="323.783" y1="150.6235" x2="323.783" y2="136.4855" gradientTransform="matrix(1 0 0 -1 0 264)">
			<stop  offset="0" style="stop-color:#552373;stop-opacity:0.6"/>
			<stop  offset="1" style="stop-color:#552373;stop-opacity:0.1"/>
		</linearGradient>
		<path style="fill:url(#SVGID_00000082363874048328222640000013295962746422353319_);fill-opacity:0.9;" d="M323.8,131
			c5.8,0,10.5-4.7,10.5-10.5c0-5.8-4.7-10.5-10.5-10.5s-10.5,4.7-10.5,10.5C313.2,126.3,318,131,323.8,131z"/>
		
			<linearGradient id="SVGID_00000142166346413662875600000012246136788897040574_" gradientUnits="userSpaceOnUse" x1="323.728" y1="181.4023" x2="323.728" y2="105.8145" gradientTransform="matrix(1 0 0 -1 0 264)">
			<stop  offset="0" style="stop-color:#552373;stop-opacity:0.4"/>
			<stop  offset="1" style="stop-color:#552373;stop-opacity:0.1"/>
		</linearGradient>
		<path style="fill:url(#SVGID_00000142166346413662875600000012246136788897040574_);fill-opacity:0.2;" d="M323.7,158.2
			c20.9,0,37.8-16.9,37.8-37.8s-16.9-37.8-37.8-37.8c-20.9,0-37.8,16.9-37.8,37.8S302.9,158.2,323.7,158.2z"/>
		
			<linearGradient id="SVGID_00000109740264092496412920000015190825641780741531_" gradientUnits="userSpaceOnUse" x1="324.0715" y1="164.3315" x2="324.0715" y2="122.2005" gradientTransform="matrix(1 0 0 -1 0 264)">
			<stop  offset="0" style="stop-color:#552373;stop-opacity:0.7"/>
			<stop  offset="1" style="stop-color:#552373;stop-opacity:0.1"/>
		</linearGradient>
		<path style="fill:url(#SVGID_00000109740264092496412920000015190825641780741531_);fill-opacity:0.5;" d="M324.1,141.8
			c11.6,0,21.1-9.4,21.1-21.1c0-11.6-9.4-21.1-21.1-21.1s-21.1,9.4-21.1,21.1C303,132.4,312.4,141.8,324.1,141.8z"/>
		
			<linearGradient id="SVGID_00000124151537942600334790000014931068439963832211_" gradientUnits="userSpaceOnUse" x1="324.4865" y1="172.2986" x2="324.4865" y2="113.4045" gradientTransform="matrix(1 0 0 -1 0 264)">
			<stop  offset="0" style="stop-color:#552373;stop-opacity:0.6"/>
			<stop  offset="1" style="stop-color:#552373;stop-opacity:5.000000e-02"/>
		</linearGradient>
		<path style="fill:url(#SVGID_00000124151537942600334790000014931068439963832211_);fill-opacity:0.6;" d="M324.5,150.6
			c16.3,0,29.4-13.2,29.4-29.4s-13.2-29.4-29.4-29.4c-16.3,0-29.4,13.2-29.4,29.4S308.2,150.6,324.5,150.6z"/>
		
			<radialGradient id="SVGID_00000116952823320258812440000002334120245352403129_" cx="-454.8819" cy="692.6638" r="1" gradientTransform="matrix(1.179323e-15 19.2598 19.306 -1.182152e-15 -13049.1865 8849.1162)" gradientUnits="userSpaceOnUse">
			<stop  offset="0" style="stop-color:#8B4CB0"/>
			<stop  offset="0.4069" style="stop-color:#653183"/>
			<stop  offset="0.7613" style="stop-color:#461762"/>
		</radialGradient>
		<path style="fill:url(#SVGID_00000116952823320258812440000002334120245352403129_);" d="M323.2,74.7c-9.1,0-16.6,7.3-16.6,16.3
			c0,11.1,14.8,27.5,15.4,28.2c0.6,0.6,1.6,0.6,2.2,0c0.6-0.7,15.4-17,15.4-28.2C339.8,82,332.3,74.7,323.2,74.7z"/>
		<path class="st2" d="M320.7,92.1v-6.7h3.5c2.7,0,3.8,1.2,3.8,3.4c0,2-1.1,3.3-3.8,3.3H320.7z M330.5,88.8c0-3-2-5.3-6.3-5.3h-5.8
			v18.1h2.4v-7.6h3.5C328.7,94.1,330.5,91.6,330.5,88.8z"/>
		
			<linearGradient id="SVGID_00000183242112277024260970000001756738300107803823_" gradientUnits="userSpaceOnUse" x1="104.398" y1="117.0715" x2="104.398" y2="93.8795" gradientTransform="matrix(1 0 0 -1 0 264)">
			<stop  offset="0" style="stop-color:#552373;stop-opacity:0.6"/>
			<stop  offset="1" style="stop-color:#552373;stop-opacity:0.1"/>
		</linearGradient>
		<path style="fill:url(#SVGID_00000183242112277024260970000001756738300107803823_);fill-opacity:0.9;" d="M104.4,175.8
			c9.5,0,17.3-7.7,17.3-17.3c0-9.5-7.7-17.3-17.3-17.3c-9.5,0-17.3,7.7-17.3,17.3C87.1,168.1,94.9,175.8,104.4,175.8z"/>
		
			<linearGradient id="SVGID_00000044137777378373864540000006778487525571781265_" gradientUnits="userSpaceOnUse" x1="104.398" y1="167.9394" x2="104.398" y2="43.0115" gradientTransform="matrix(1 0 0 -1 0 264)">
			<stop  offset="0" style="stop-color:#552373;stop-opacity:0.4"/>
			<stop  offset="1" style="stop-color:#552373;stop-opacity:0.1"/>
		</linearGradient>
		<path style="fill:url(#SVGID_00000044137777378373864540000006778487525571781265_);fill-opacity:0.2;" d="M104.4,221
			c34.5,0,62.5-28,62.5-62.5s-28-62.5-62.5-62.5s-62.5,28-62.5,62.5S69.9,221,104.4,221z"/>
		
			<linearGradient id="SVGID_00000066497093650680129870000004795836034569284787_" gradientUnits="userSpaceOnUse" x1="105.062" y1="140.0295" x2="105.062" y2="70.9205" gradientTransform="matrix(1 0 0 -1 0 264)">
			<stop  offset="0" style="stop-color:#552373;stop-opacity:0.7"/>
			<stop  offset="1" style="stop-color:#552373;stop-opacity:0.1"/>
		</linearGradient>
		<path style="fill:url(#SVGID_00000066497093650680129870000004795836034569284787_);fill-opacity:0.5;" d="M105.1,193.1
			c19.5,0,35.2-15.5,35.2-34.6c0-19.1-15.8-34.6-35.2-34.6s-35.2,15.5-35.2,34.6C69.8,177.6,85.6,193.1,105.1,193.1z"/>
		
			<linearGradient id="SVGID_00000036932771361125217370000006803702735607149474_" gradientUnits="userSpaceOnUse" x1="105.727" y1="153.3205" x2="105.727" y2="56.3015" gradientTransform="matrix(1 0 0 -1 0 264)">
			<stop  offset="0" style="stop-color:#552373;stop-opacity:0.6"/>
			<stop  offset="1" style="stop-color:#552373;stop-opacity:5.000000e-02"/>
		</linearGradient>
		<path style="fill:url(#SVGID_00000036932771361125217370000006803702735607149474_);fill-opacity:0.6;" d="M105.7,207.7
			c27.2,0,49.2-21.7,49.2-48.5c0-26.8-22-48.5-49.2-48.5s-49.2,21.7-49.2,48.5C56.6,186,78.6,207.7,105.7,207.7z"/>
		
			<radialGradient id="SVGID_00000003795421251077973920000011197464696055564195_" cx="-463.2484" cy="684.5587" r="1" gradientTransform="matrix(1.953097e-15 31.8965 31.7656 -1.945082e-15 -21641.3398 14890.0107)" gradientUnits="userSpaceOnUse">
			<stop  offset="0" style="stop-color:#8B4CB0"/>
			<stop  offset="0.4069" style="stop-color:#653183"/>
			<stop  offset="0.7613" style="stop-color:#461762"/>
		</radialGradient>
		<path style="fill:url(#SVGID_00000003795421251077973920000011197464696055564195_);" d="M103.8,91.7c-15,0-27.2,12.1-27.2,27
			c0,18.4,24.4,45.5,25.4,46.7c1,1.1,2.7,1.1,3.7,0c1-1.1,25.4-28.2,25.4-46.7C131,103.8,118.8,91.7,103.8,91.7z"/>
		<path class="st2" d="M99,120.6v-10.7h5.7c4.4,0,6.3,2,6.3,5.4c0,3.3-1.9,5.3-6.3,5.3H99z M115,115.3c0-4.8-3.3-8.6-10.3-8.6h-9.6
			v29.2H99v-12.2h5.7C112.1,123.7,115,119.7,115,115.3z"/>
	</g>
</g>
</svg>
