<svg width="374" height="348" viewBox="0 0 374 348" fill="none" xmlns="http://www.w3.org/2000/svg">
<g filter="url(#filter0_dd_562_3439)">
<path d="M290 15H84C56.3858 15 34 37.3858 34 65V245C34 272.614 56.3858 295 84 295H290C317.614 295 340 272.614 340 245V65C340 37.3858 317.614 15 290 15Z" fill="#F4F4F4"/>
<path d="M168 109H130V147H168V109Z" fill="#FFA600"/>
<path d="M206 109H168V147H206V109Z" fill="#FFA600"/>
<path d="M244 109H206V147H244V109Z" fill="#FFA600"/>
<path d="M62.02 79.8398H71.64V78.3198H64.76C67.34 76.2198 71.22 73.1598 71.22 69.5598C71.22 66.8798 69.46 65.2798 66.74 65.2798C64.14 65.2798 62.2 66.8798 62.08 69.9598H63.84C63.92 68.1398 64.88 66.8398 66.76 66.8398C68.72 66.8398 69.42 68.0398 69.42 69.6398C69.42 72.5998 65.82 75.4798 62.02 78.5398V79.8398ZM74.1639 65.5798V67.1398H81.8839L76.2439 79.9998H78.0839L83.6439 66.9598V65.5798H74.1639Z" fill="#C7C7C7"/>
<path d="M99.02 79.8398H108.64V78.3198H101.76C104.34 76.2198 108.22 73.1598 108.22 69.5598C108.22 66.8798 106.46 65.2798 103.74 65.2798C101.14 65.2798 99.2 66.8798 99.08 69.9598H100.84C100.92 68.1398 101.88 66.8398 103.76 66.8398C105.72 66.8398 106.42 68.0398 106.42 69.6398C106.42 72.5998 102.82 75.4798 99.02 78.5398V79.8398ZM114.384 72.4798C112.764 72.9598 111.704 74.2798 111.704 76.0998C111.704 78.7198 113.764 80.3998 116.804 80.3998C119.864 80.3998 121.944 78.7198 121.944 76.0998C121.944 74.2998 120.884 72.9798 119.244 72.4798C120.664 71.9198 121.564 70.7198 121.564 69.1598C121.564 67.0598 119.944 65.3198 116.804 65.3198C113.664 65.3198 112.064 67.0398 112.064 69.1598C112.064 70.7798 112.904 71.8998 114.384 72.4798ZM116.804 71.8798C115.044 71.8798 113.824 70.8998 113.824 69.3998C113.824 67.6998 115.024 66.8398 116.804 66.8398C118.624 66.8398 119.804 67.7198 119.804 69.3798C119.804 70.8798 118.584 71.8798 116.804 71.8798ZM116.804 73.2798C118.704 73.2798 120.144 74.1798 120.144 76.0398C120.144 77.7198 118.864 78.8798 116.804 78.8798C114.744 78.8798 113.444 77.7398 113.444 76.0398C113.444 74.1198 114.944 73.2798 116.804 73.2798Z" fill="#C7C7C7"/>
<path d="M137.02 79.8398H146.64V78.3198H139.76C142.34 76.2198 146.22 73.1598 146.22 69.5598C146.22 66.8798 144.46 65.2798 141.74 65.2798C139.14 65.2798 137.2 66.8798 137.08 69.9598H138.84C138.92 68.1398 139.88 66.8398 141.76 66.8398C143.72 66.8398 144.42 68.0398 144.42 69.6398C144.42 72.5998 140.82 75.4798 137.02 78.5398V79.8398ZM150.404 76.1198C150.604 78.2398 152.004 80.0198 154.884 80.0198C158.684 80.0198 159.784 77.3198 159.784 72.4998C159.784 68.0198 158.644 65.2598 154.724 65.2598C151.604 65.2598 149.964 67.2598 149.964 70.0198C149.964 73.0798 151.944 74.7398 154.604 74.7398C156.164 74.7398 157.604 74.0398 158.184 72.8198C158.244 77.0598 157.104 78.4998 154.984 78.4998C153.304 78.4998 152.344 77.6198 152.084 76.1198H150.404ZM154.904 73.1998C152.744 73.1998 151.704 71.8398 151.704 69.9798C151.704 68.0598 152.884 66.7798 154.764 66.7798C156.844 66.7798 157.964 68.1598 157.964 70.1198C157.964 72.0598 156.644 73.1998 154.904 73.1998Z" fill="#C7C7C7"/>
<path d="M92 128C92 117.507 100.507 109 111 109H130V147H111C100.507 147 92 138.493 92 128Z" fill="#FFA600"/>
<path d="M54 183C54 172.507 62.507 164 73 164C83.4934 164 92 172.507 92 183C92 193.493 83.4934 202 73 202C62.507 202 54 193.493 54 183Z" fill="#FFA600"/>
<path d="M175.2 69.1798H176.98C177.16 67.7798 178.18 66.8198 179.88 66.8198C181.62 66.8198 182.54 67.7798 182.54 69.1598C182.54 70.8398 181.24 71.5798 178.82 71.5998H178.34V73.1198H178.8C181.4 73.1198 182.82 73.8998 182.82 75.9398C182.82 77.4198 181.9 78.5598 179.96 78.5598C178.04 78.5598 176.92 77.3798 176.74 75.8398H174.98C175.2 78.6398 177.24 80.0998 179.98 80.0998C183 80.0998 184.56 78.3398 184.56 76.0998C184.56 74.0198 183.42 72.7798 181.74 72.3798V72.2798C183.26 71.9398 184.3 70.6398 184.3 68.9798C184.3 66.8998 182.76 65.2598 179.94 65.2598C177.26 65.2598 175.38 66.6998 175.2 69.1798ZM188.017 72.6198C188.017 76.8198 189.057 79.9998 193.057 79.9998C197.037 79.9998 198.077 76.8198 198.077 72.6198C198.077 68.4798 197.037 65.3198 193.057 65.3198C189.057 65.3198 188.017 68.4798 188.017 72.6198ZM196.277 72.6198C196.277 75.7398 195.897 78.3398 193.057 78.3398C190.197 78.3398 189.817 75.7398 189.817 72.6198C189.817 69.6198 190.197 66.9798 193.057 66.9798C195.897 66.9798 196.277 69.6198 196.277 72.6198Z" fill="#C7C7C7"/>
<path d="M216.2 69.1798H217.98C218.16 67.7798 219.18 66.8198 220.88 66.8198C222.62 66.8198 223.54 67.7798 223.54 69.1598C223.54 70.8398 222.24 71.5798 219.82 71.5998H219.34V73.1198H219.8C222.4 73.1198 223.82 73.8998 223.82 75.9398C223.82 77.4198 222.9 78.5598 220.96 78.5598C219.04 78.5598 217.92 77.3798 217.74 75.8398H215.98C216.2 78.6398 218.24 80.0998 220.98 80.0998C224 80.0998 225.56 78.3398 225.56 76.0998C225.56 74.0198 224.42 72.7798 222.74 72.3798V72.2798C224.26 71.9398 225.3 70.6398 225.3 68.9798C225.3 66.8998 223.76 65.2598 220.94 65.2598C218.26 65.2598 216.38 66.6998 216.2 69.1798ZM230.457 79.9998H232.297V65.5398H228.537V67.1998H230.457V79.9998Z" fill="#C7C7C7"/>
<path d="M262.18 80H264.02V65.54H260.26V67.2H262.18V80Z" fill="#222222"/>
<path d="M296.02 79.8398H305.64V78.3198H298.76C301.34 76.2198 305.22 73.1598 305.22 69.5598C305.22 66.8798 303.46 65.2798 300.74 65.2798C298.14 65.2798 296.2 66.8798 296.08 69.9598H297.84C297.92 68.1398 298.88 66.8398 300.76 66.8398C302.72 66.8398 303.42 68.0398 303.42 69.6398C303.42 72.5998 299.82 75.4798 296.02 78.5398V79.8398Z" fill="#222222"/>
<path d="M68.2 124.18H69.98C70.16 122.78 71.18 121.82 72.88 121.82C74.62 121.82 75.54 122.78 75.54 124.16C75.54 125.84 74.24 126.58 71.82 126.6H71.34V128.12H71.8C74.4 128.12 75.82 128.9 75.82 130.94C75.82 132.42 74.9 133.56 72.96 133.56C71.04 133.56 69.92 132.38 69.74 130.84H67.98C68.2 133.64 70.24 135.1 72.98 135.1C76 135.1 77.56 133.34 77.56 131.1C77.56 129.02 76.42 127.78 74.74 127.38V127.28C76.26 126.94 77.3 125.64 77.3 123.98C77.3 121.9 75.76 120.26 72.94 120.26C70.26 120.26 68.38 121.7 68.2 124.18Z" fill="#222222"/>
<path d="M112.7 135H114.5V131.78H116.5V130.2H114.5V120.68H112.32L105.3 130.4V131.78H112.7V135ZM107.4 130.2L112.78 122.58V130.2H107.4Z" fill="#222222"/>
<path d="M144.26 120.52V128.68H145.98C146.46 127.54 147.52 126.78 148.98 126.78C151.08 126.78 152.14 127.98 152.14 130.04C152.14 132.02 151.16 133.5 148.96 133.5C147.26 133.5 146.08 132.6 145.74 131.08H143.96C144.32 133.42 146.06 135.04 148.94 135.04C152.32 135.04 153.88 132.8 153.88 130C153.88 127.76 152.76 125.22 149.24 125.22C147.82 125.22 146.54 125.86 145.94 126.68V122.12H152.96V120.52H144.26Z" fill="#222222"/>
<path d="M191.48 123.98C191.24 121.96 189.84 120.24 187.08 120.24C183.42 120.24 181.96 123.04 181.96 127.58C181.96 131.96 182.98 135.04 187.26 135.04C190.42 135.04 191.98 132.88 191.98 130.24C191.98 127.2 190.16 125.42 187.46 125.42C185.74 125.42 184.16 126.22 183.54 127.64C183.52 123.34 184.76 121.76 187.06 121.76C188.7 121.76 189.52 122.58 189.8 123.98H191.48ZM187.08 126.96C189.16 126.96 190.22 128.26 190.22 130.3C190.22 132.26 189.04 133.52 187.16 133.52C184.88 133.52 183.76 132.02 183.76 130.1C183.76 127.94 185.42 126.96 187.08 126.96Z" fill="#222222"/>
<path d="M220.16 120.58V122.14H227.88L222.24 135H224.08L229.64 121.96V120.58H220.16Z" fill="#222222"/>
<path d="M282 109H244V147H282V109Z" fill="#FFA600"/>
<path d="M260.38 127.48C258.76 127.96 257.7 129.28 257.7 131.1C257.7 133.72 259.76 135.4 262.8 135.4C265.86 135.4 267.94 133.72 267.94 131.1C267.94 129.3 266.88 127.98 265.24 127.48C266.66 126.92 267.56 125.72 267.56 124.16C267.56 122.06 265.94 120.32 262.8 120.32C259.66 120.32 258.06 122.04 258.06 124.16C258.06 125.78 258.9 126.9 260.38 127.48ZM262.8 126.88C261.04 126.88 259.82 125.9 259.82 124.4C259.82 122.7 261.02 121.84 262.8 121.84C264.62 121.84 265.8 122.72 265.8 124.38C265.8 125.88 264.58 126.88 262.8 126.88ZM262.8 128.28C264.7 128.28 266.14 129.18 266.14 131.04C266.14 132.72 264.86 133.88 262.8 133.88C260.74 133.88 259.44 132.74 259.44 131.04C259.44 129.12 260.94 128.28 262.8 128.28Z" fill="#222222"/>
<path d="M282 109H301C311.493 109 320 117.507 320 128C320 138.493 311.493 147 301 147H282V109Z" fill="#FFA600"/>
<path d="M296.4 131.12C296.6 133.24 298 135.02 300.88 135.02C304.68 135.02 305.78 132.32 305.78 127.5C305.78 123.02 304.64 120.26 300.72 120.26C297.6 120.26 295.96 122.26 295.96 125.02C295.96 128.08 297.94 129.74 300.6 129.74C302.16 129.74 303.6 129.04 304.18 127.82C304.24 132.06 303.1 133.5 300.98 133.5C299.3 133.5 298.34 132.62 298.08 131.12H296.4ZM300.9 128.2C298.74 128.2 297.7 126.84 297.7 124.98C297.7 123.06 298.88 121.78 300.76 121.78C302.84 121.78 303.96 123.16 303.96 125.12C303.96 127.06 302.64 128.2 300.9 128.2Z" fill="#222222"/>
<path d="M65.6798 190H67.5198V175.54H63.7598V177.2H65.6798V190ZM71.6461 182.62C71.6461 186.82 72.6861 190 76.6861 190C80.6661 190 81.706 186.82 81.706 182.62C81.706 178.48 80.6661 175.32 76.6861 175.32C72.6861 175.32 71.6461 178.48 71.6461 182.62ZM79.9061 182.62C79.9061 185.74 79.5261 188.34 76.6861 188.34C73.8261 188.34 73.4461 185.74 73.4461 182.62C73.4461 179.62 73.8261 176.98 76.6861 176.98C79.5261 176.98 79.9061 179.62 79.9061 182.62Z" fill="#222222"/>
<path d="M106.68 190H108.52V175.54H104.76V177.2H106.68V190ZM114.086 190H115.926V175.54H112.166V177.2H114.086V190Z" fill="#222222"/>
<path d="M142.18 190H144.02V175.54H140.26V177.2H142.18V190ZM147.926 189.84H157.546V188.32H150.666C153.246 186.22 157.126 183.16 157.126 179.56C157.126 176.88 155.366 175.28 152.646 175.28C150.046 175.28 148.106 176.88 147.986 179.96H149.746C149.826 178.14 150.786 176.84 152.666 176.84C154.626 176.84 155.326 178.04 155.326 179.64C155.326 182.6 151.726 185.48 147.926 188.54V189.84Z" fill="#222222"/>
<path d="M179.68 190H181.52V175.54H177.76V177.2H179.68V190ZM185.606 179.18H187.386C187.566 177.78 188.586 176.82 190.286 176.82C192.026 176.82 192.946 177.78 192.946 179.16C192.946 180.84 191.646 181.58 189.226 181.6H188.746V183.12H189.206C191.806 183.12 193.226 183.9 193.226 185.94C193.226 187.42 192.306 188.56 190.366 188.56C188.446 188.56 187.326 187.38 187.146 185.84H185.386C185.606 188.64 187.646 190.1 190.386 190.1C193.406 190.1 194.966 188.34 194.966 186.1C194.966 184.02 193.826 182.78 192.146 182.38V182.28C193.666 181.94 194.706 180.64 194.706 178.98C194.706 176.9 193.166 175.26 190.346 175.26C187.666 175.26 185.786 176.7 185.606 179.18Z" fill="#222222"/>
<path d="M217.68 190H219.52V175.54H215.76V177.2H217.68V190ZM230.606 190H232.406V186.78H234.406V185.2H232.406V175.68H230.226L223.206 185.4V186.78H230.606V190ZM225.306 185.2L230.686 177.58V185.2H225.306Z" fill="#222222"/>
<path d="M255.68 190H257.52V175.54H253.76V177.2H255.68V190ZM262.166 175.52V183.68H263.886C264.366 182.54 265.426 181.78 266.886 181.78C268.986 181.78 270.046 182.98 270.046 185.04C270.046 187.02 269.066 188.5 266.866 188.5C265.166 188.5 263.986 187.6 263.646 186.08H261.866C262.226 188.42 263.966 190.04 266.846 190.04C270.226 190.04 271.786 187.8 271.786 185C271.786 182.76 270.666 180.22 267.146 180.22C265.726 180.22 264.446 180.86 263.846 181.68V177.12H270.866V175.52H262.166Z" fill="#222222"/>
<path d="M293.18 190H295.02V175.54H291.26V177.2H293.18V190ZM308.886 178.98C308.646 176.96 307.246 175.24 304.486 175.24C300.826 175.24 299.366 178.04 299.366 182.58C299.366 186.96 300.386 190.04 304.666 190.04C307.826 190.04 309.386 187.88 309.386 185.24C309.386 182.2 307.566 180.42 304.866 180.42C303.146 180.42 301.566 181.22 300.946 182.64C300.926 178.34 302.166 176.76 304.466 176.76C306.106 176.76 306.926 177.58 307.206 178.98H308.886ZM304.486 181.96C306.566 181.96 307.626 183.26 307.626 185.3C307.626 187.26 306.446 188.52 304.566 188.52C302.286 188.52 301.166 187.02 301.166 185.1C301.166 182.94 302.826 181.96 304.486 181.96Z" fill="#222222"/>
<path d="M66.1798 245H68.0198V230.54H64.2598V232.2H66.1798V245ZM71.566 230.58V232.14H79.2861L73.6461 245H75.4861L81.0461 231.96V230.58H71.566Z" fill="#222222"/>
<path d="M103.18 245H105.02V230.54H101.26V232.2H103.18V245ZM111.786 237.48C110.166 237.96 109.106 239.28 109.106 241.1C109.106 243.72 111.166 245.4 114.206 245.4C117.266 245.4 119.346 243.72 119.346 241.1C119.346 239.3 118.286 237.98 116.646 237.48C118.066 236.92 118.966 235.72 118.966 234.16C118.966 232.06 117.346 230.32 114.206 230.32C111.066 230.32 109.466 232.04 109.466 234.16C109.466 235.78 110.306 236.9 111.786 237.48ZM114.206 236.88C112.446 236.88 111.226 235.9 111.226 234.4C111.226 232.7 112.426 231.84 114.206 231.84C116.026 231.84 117.206 232.72 117.206 234.38C117.206 235.88 115.986 236.88 114.206 236.88ZM114.206 238.28C116.106 238.28 117.546 239.18 117.546 241.04C117.546 242.72 116.266 243.88 114.206 243.88C112.146 243.88 110.846 242.74 110.846 241.04C110.846 239.12 112.346 238.28 114.206 238.28Z" fill="#222222"/>
<path d="M141.18 245H143.02V230.54H139.26V232.2H141.18V245ZM147.806 241.12C148.006 243.24 149.406 245.02 152.286 245.02C156.086 245.02 157.186 242.32 157.186 237.5C157.186 233.02 156.046 230.26 152.126 230.26C149.006 230.26 147.366 232.26 147.366 235.02C147.366 238.08 149.346 239.74 152.006 239.74C153.566 239.74 155.006 239.04 155.586 237.82C155.646 242.06 154.506 243.5 152.386 243.5C150.706 243.5 149.746 242.62 149.486 241.12H147.806ZM152.306 238.2C150.146 238.2 149.106 236.84 149.106 234.98C149.106 233.06 150.286 231.78 152.166 231.78C154.246 231.78 155.366 233.16 155.366 235.12C155.366 237.06 154.046 238.2 152.306 238.2Z" fill="#222222"/>
<path d="M175.02 244.84H184.64V243.32H177.76C180.34 241.22 184.22 238.16 184.22 234.56C184.22 231.88 182.46 230.28 179.74 230.28C177.14 230.28 175.2 231.88 175.08 234.96H176.84C176.92 233.14 177.88 231.84 179.76 231.84C181.72 231.84 182.42 233.04 182.42 234.64C182.42 237.6 178.82 240.48 175.02 243.54V244.84ZM187.744 237.62C187.744 241.82 188.784 245 192.784 245C196.764 245 197.804 241.82 197.804 237.62C197.804 233.48 196.764 230.32 192.784 230.32C188.784 230.32 187.744 233.48 187.744 237.62ZM196.004 237.62C196.004 240.74 195.624 243.34 192.784 243.34C189.924 243.34 189.544 240.74 189.544 237.62C189.544 234.62 189.924 231.98 192.784 231.98C195.624 231.98 196.004 234.62 196.004 237.62Z" fill="#222222"/>
<path d="M216.52 244.84H226.14V243.32H219.26C221.84 241.22 225.72 238.16 225.72 234.56C225.72 231.88 223.96 230.28 221.24 230.28C218.64 230.28 216.7 231.88 216.58 234.96H218.34C218.42 233.14 219.38 231.84 221.26 231.84C223.22 231.84 223.92 233.04 223.92 234.64C223.92 237.6 220.32 240.48 216.52 243.54V244.84ZM230.684 245H232.524V230.54H228.764V232.2H230.684V245Z" fill="#222222"/>
<path d="M251.52 244.84H261.14V243.32H254.26C256.84 241.22 260.72 238.16 260.72 234.56C260.72 231.88 258.96 230.28 256.24 230.28C253.64 230.28 251.7 231.88 251.58 234.96H253.34C253.42 233.14 254.38 231.84 256.26 231.84C258.22 231.84 258.92 233.04 258.92 234.64C258.92 237.6 255.32 240.48 251.52 243.54V244.84ZM264.024 244.84H273.644V243.32H266.764C269.344 241.22 273.224 238.16 273.224 234.56C273.224 231.88 271.464 230.28 268.744 230.28C266.144 230.28 264.204 231.88 264.084 234.96H265.844C265.924 233.14 266.884 231.84 268.764 231.84C270.724 231.84 271.424 233.04 271.424 234.64C271.424 237.6 267.824 240.48 264.024 243.54V244.84Z" fill="#222222"/>
<path d="M289.52 244.84H299.14V243.32H292.26C294.84 241.22 298.72 238.16 298.72 234.56C298.72 231.88 296.96 230.28 294.24 230.28C291.64 230.28 289.7 231.88 289.58 234.96H291.34C291.42 233.14 292.38 231.84 294.26 231.84C296.22 231.84 296.92 233.04 296.92 234.64C296.92 237.6 293.32 240.48 289.52 243.54V244.84ZM302.204 234.18H303.984C304.164 232.78 305.184 231.82 306.884 231.82C308.624 231.82 309.544 232.78 309.544 234.16C309.544 235.84 308.244 236.58 305.824 236.6H305.344V238.12H305.804C308.404 238.12 309.824 238.9 309.824 240.94C309.824 242.42 308.904 243.56 306.964 243.56C305.044 243.56 303.924 242.38 303.744 240.84H301.984C302.204 243.64 304.244 245.1 306.984 245.1C310.004 245.1 311.564 243.34 311.564 241.1C311.564 239.02 310.424 237.78 308.744 237.38V237.28C310.264 236.94 311.304 235.64 311.304 233.98C311.304 231.9 309.764 230.26 306.944 230.26C304.264 230.26 302.384 231.7 302.204 234.18Z" fill="#222222"/>
<path fill-rule="evenodd" clip-rule="evenodd" d="M34 65C34 37.3857 56.3857 15 84 15H290C317.614 15 340 37.3857 340 65V245C340 272.614 317.614 295 290 295H84C56.3857 295 34 272.614 34 245V65ZM84 17C57.4903 17 36 38.4903 36 65V245C36 271.51 57.4903 293 84 293H290C316.51 293 338 271.51 338 245V65C338 38.4903 316.51 17 290 17H84Z" fill="white"/>
</g>
<defs>
<filter id="filter0_dd_562_3439" x="0" y="0" width="374" height="348" filterUnits="userSpaceOnUse" color-interpolation-filters="sRGB">
<feFlood flood-opacity="0" result="BackgroundImageFix"/>
<feColorMatrix in="SourceAlpha" type="matrix" values="0 0 0 0 0 0 0 0 0 0 0 0 0 0 0 0 0 0 127 0" result="hardAlpha"/>
<feOffset dy="19"/>
<feGaussianBlur stdDeviation="17"/>
<feColorMatrix type="matrix" values="0 0 0 0 1 0 0 0 0 0.65 0 0 0 0 0 0 0 0 0.2 0"/>
<feBlend mode="normal" in2="BackgroundImageFix" result="effect1_dropShadow_562_3439"/>
<feColorMatrix in="SourceAlpha" type="matrix" values="0 0 0 0 0 0 0 0 0 0 0 0 0 0 0 0 0 0 127 0" result="hardAlpha"/>
<feOffset dy="4"/>
<feGaussianBlur stdDeviation="2"/>
<feColorMatrix type="matrix" values="0 0 0 0 0 0 0 0 0 0 0 0 0 0 0 0 0 0 0.1 0"/>
<feBlend mode="normal" in2="effect1_dropShadow_562_3439" result="effect2_dropShadow_562_3439"/>
<feBlend mode="normal" in="SourceGraphic" in2="effect2_dropShadow_562_3439" result="shape"/>
</filter>
</defs>
</svg>
